<svg id="Режим_изоляции" data-name="Режим изоляции" xmlns="http://www.w3.org/2000/svg" width="13.9cm" height="13.9cm" viewBox="0 0 393.96 393.96"><title>20min</title><path d="M4451.76,694.85c22.39,19,73.46,86.37,81.15,78.67C4559.44,747,4579,712.49,4579,672a134.85,134.85,0,0,0-134.85-134.85" transform="translate(-4253.77 -489.15)" style="fill:#f5d211"/><circle cx="196.98" cy="196.98" r="189.98" style="fill:none;stroke:#fff;stroke-miterlimit:10;stroke-width:14px"/><path d="M4459.26,694.17v0.68a8.49,8.49,0,0,1-8.5,8.5c-0.24,0-.49,0-0.73,0l-3.87-3.87h0a5.44,5.44,0,0,1-.79-1,2.82,2.82,0,0,1-.23-0.37,6.41,6.41,0,0,1-.88-3.26V537.15a6.5,6.5,0,1,1,13,0v155Z" transform="translate(-4253.77 -489.15)" style="fill:#fff"/><path d="M4457.26,692.17v2.68a6.5,6.5,0,0,1-11.1,4.59h0l3.87,3.87,2,2a10.54,10.54,0,0,0,9.2-9.18Z" transform="translate(-4253.77 -489.15)" style="fill:#fff"/><path d="M4534.36,778.46a6.51,6.51,0,0,1-9.19,0L4452,705.28l-2-2-3.87-3.87h0a5.44,5.44,0,0,1-.79-1,2.82,2.82,0,0,1-.23-0.37,6.41,6.41,0,0,1-.88-3.26v-5.46a4.94,4.94,0,0,1,.49-0.55,8.5,8.5,0,0,1,12,0l0.49,0.49v2.84l3.93,3.93,73.17,73.16A6.52,6.52,0,0,1,4534.36,778.46Z" transform="translate(-4253.77 -489.15)" style="fill:#fff"/><path d="M4441.09,698.93a7.56,7.56,0,0,0,.69,1.36A10.83,10.83,0,0,1,4441.09,698.93Zm3.17-12.32v8.24a6.5,6.5,0,0,1,11.09-4.59l1.91,1.91v-5.55A10.49,10.49,0,0,0,4444.26,686.61Z" transform="translate(-4253.77 -489.15)" style="fill:#fff"/><line x1="52.11" y1="196.98" x2="34.11" y2="196.98" style="fill:none;stroke:#fff;stroke-linecap:round;stroke-linejoin:round;stroke-width:14px"/><line x1="362.44" y1="196.98" x2="344.44" y2="196.98" style="fill:none;stroke:#fff;stroke-linecap:round;stroke-linejoin:round;stroke-width:14px"/><line x1="196.98" y1="359.84" x2="196.98" y2="341.84" style="fill:none;stroke:#fff;stroke-linecap:round;stroke-linejoin:round;stroke-width:14px"/></svg>