<svg id="Слой_1" data-name="Слой 1" xmlns="http://www.w3.org/2000/svg" width="473.05" height="473.05" viewBox="0 0 473.05 473.05"><title>2way store</title><path d="M3634.1,1214.36l13,71,14.39-71h17.61l-21.26,98.81h-20.29l-12-68.89-12,68.89h-20.29l-21.26-98.81h17.61l14.39,71,13-71h17.18Z" transform="translate(-3294.12 -1165.12)" style="fill:#fff"/><path d="M3659.44,1315.18h-23.59l-10.34-59.26-10.34,59.26h-23.59l-22.12-102.81h21.72l12.65,62.44,11.42-62.44h20.51l11.42,62.44,12.65-62.44h21.72Zm-20.23-4h17l20.4-94.81h-13.5L3647,1295.93l-14.56-79.57h-13.84L3604,1295.93l-16.12-79.57h-13.5l20.4,94.81h17l13.71-78.52Z" transform="translate(-3294.12 -1165.12)" style="fill:#fff"/><path d="M3659.41,1418.87h-18.25l-4.94-20.33h-27.38l-4.83,20.33h-18.25l26.2-98.81h21.26Zm-46.28-38.11H3632l-9.45-39.53Z" transform="translate(-3294.12 -1165.12)" style="fill:#fff"/><path d="M3662,1420.87h-22.42l-4.94-20.33h-24.23l-4.83,20.33h-22.43l27.26-102.81h24.34Zm-19.28-4h14.08l-25.14-94.81H3613.5l-25.14,94.81h14.07l4.83-20.33h30.53Zm-8.16-34.11h-24l12-50.13Zm-18.9-4h13.83l-6.92-28.92Z" transform="translate(-3294.12 -1165.12)" style="fill:#fff"/><path d="M3658.16,1425.69l-25.45,60v38.82h-17.18v-38.82l-25.45-60h18.36l15.68,40.51,15.68-40.51h18.36Z" transform="translate(-3294.12 -1165.12)" style="fill:#fff"/><path d="M3634.71,1526.5h-21.18v-40.41l-26.47-62.4h22.75l14.3,37,14.3-37h22.75l-26.47,62.4v40.41Zm-17.18-4h13.18v-37.23l0.16-.37,24.27-57.21h-14l-17,44.06-17-44.06h-14l24.43,57.59v37.23Z" transform="translate(-3294.12 -1165.12)" style="fill:#fff"/><path d="M3410.52,1537.19H3419l0.9,15.88-9.66.53a12.1,12.1,0,0,0-4.38-6.25,12.31,12.31,0,0,0-6.89-1.82,9.41,9.41,0,0,0-5.33,1.25,3.74,3.74,0,0,0-1.82,3.18,3.29,3.29,0,0,0,2,3.15q2,1,8.72,2.27a73.88,73.88,0,0,1,11.8,2.92,15.83,15.83,0,0,1,6.8,5.1,13.17,13.17,0,0,1,2.49,8.13,16.14,16.14,0,0,1-3.13,9.63,20.32,20.32,0,0,1-8.86,6.78,30.57,30.57,0,0,1-12,2.43,41.75,41.75,0,0,1-14.5-3l-1.47,2.58H3375l-1.33-19.86,9.9-.68a15.77,15.77,0,0,0,2.49,6.59,12.17,12.17,0,0,0,4.88,3.79,15.49,15.49,0,0,0,6.51,1.44,9.69,9.69,0,0,0,6-1.82,5.38,5.38,0,0,0,2.39-4.4,4.25,4.25,0,0,0-1-2.82,6.85,6.85,0,0,0-3.1-1.93,72.2,72.2,0,0,0-7.91-1.84q-5.85-1.14-7.56-1.59a26.67,26.67,0,0,1-5.28-2,13.33,13.33,0,0,1-3.65-2.77,11.86,11.86,0,0,1-2.27-3.73,12.43,12.43,0,0,1-.83-4.53,14.5,14.5,0,0,1,2.8-8.49,18.68,18.68,0,0,1,8-6.27,28.4,28.4,0,0,1,11.56-2.29,33.48,33.48,0,0,1,6.23.57,42.69,42.69,0,0,1,6.56,1.86Z" transform="translate(-3294.12 -1165.12)" style="fill:#fff"/><path d="M3440.79,1589.19v-6.82a29.9,29.9,0,0,0,4.78-1.1,3.11,3.11,0,0,0,1.54-1.1,4.39,4.39,0,0,0,.4-2.2v-32.25a7.08,7.08,0,0,0-2.94,1.36,8.28,8.28,0,0,0-2.11,3.39,44.77,44.77,0,0,0-1.59,7.37l-9.52-.45,1.33-19.86h49.22l0.9,19.86-9.66.34a46.78,46.78,0,0,0-1.78-7.45,7.22,7.22,0,0,0-2-3,7.54,7.54,0,0,0-3.22-1.44v32a5.07,5.07,0,0,0,.33,2.16,2.53,2.53,0,0,0,1.18,1.06,29.6,29.6,0,0,0,4.55,1.29v6.82h-31.46Z" transform="translate(-3294.12 -1165.12)" style="fill:#fff"/><path d="M3488.93,1563.49a29.33,29.33,0,0,1,3.24-13.64,22.78,22.78,0,0,1,10-9.84,37.31,37.31,0,0,1,31.74,0,22.81,22.81,0,0,1,10,9.82,30.39,30.39,0,0,1,0,27.33,22.91,22.91,0,0,1-10,9.84,37.13,37.13,0,0,1-31.74,0,22.88,22.88,0,0,1-10-9.85A29.32,29.32,0,0,1,3488.93,1563.49Zm21,0q0,11.26,3,15.16a6.41,6.41,0,0,0,5.4,2.46,5.67,5.67,0,0,0,4.78-2.43q3.08-4.13,3.08-15.2,0-11.26-3-15.16a6.41,6.41,0,0,0-5.4-2.46,5.76,5.76,0,0,0-4.83,2.46Q3509.91,1552.42,3509.91,1563.49Z" transform="translate(-3294.12 -1165.12)" style="fill:#fff"/><path d="M3552.46,1589.19v-6.82q4.22-.83,5.14-1.63a3.67,3.67,0,0,0,.92-2.88v-28.92a4.44,4.44,0,0,0-.38-2.08,3.4,3.4,0,0,0-1.56-1.25,17.4,17.4,0,0,0-4.12-1.25v-6.82h37a38.4,38.4,0,0,1,11.51,1.35,12.62,12.62,0,0,1,6.4,4.49,11.93,11.93,0,0,1,2.32,7.28,14.4,14.4,0,0,1-1.35,6.33,12.48,12.48,0,0,1-3.6,4.55,27,27,0,0,1-6,3.34l7.86,13.72a6.42,6.42,0,0,0,2.46,2.56,11.77,11.77,0,0,0,3.93,1.23v6.82h-21.22l-11.94-23h-2.46v11.94a4.45,4.45,0,0,0,.24,1.72,2.33,2.33,0,0,0,.66.85,5.33,5.33,0,0,0,1.23.68q0.57,0.19,1.14.34l3.27,0.64v6.82h-31.46Zm24.92-30.55h3.36q5.12,0,7-1.5t1.89-5.25a6.1,6.1,0,0,0-1-3.7,5.26,5.26,0,0,0-2.75-2,18.43,18.43,0,0,0-5.12-.53h-3.36v12.92Z" transform="translate(-3294.12 -1165.12)" style="fill:#fff"/><path d="M3668.76,1537.53l1.09,19.48-9.71.61a24,24,0,0,0-2-7.33,7.4,7.4,0,0,0-3.67-3.24q-3.27-1.44-9.85-1.44H3642v11.6a5.6,5.6,0,0,0,3.65-1.42q1.23-1.23,1.52-4.87h8.1v21.38h-8.1q-0.47-3.94-1.56-5.14a6.45,6.45,0,0,0-3.6-1.69v15.65h3.36a31.39,31.39,0,0,0,7.79-.76,10.16,10.16,0,0,0,4.22-2,7.91,7.91,0,0,0,2.11-3.24,34.37,34.37,0,0,0,1.52-6.75l10,0.53-0.71,20.31h-53.44v-6.82q4.41-.87,5.45-1.82a4.32,4.32,0,0,0,1-3.3v-25.47h0v-2.31q0-2.35-.95-3.15-1.18-1.1-5.59-2v-6.82h51.88Z" transform="translate(-3294.12 -1165.12)" style="fill:#fff"/><path d="M3475.6,1284.19c-14.17,0-24.44,8.29-24.44,29.66h-53.83c-0.71-65.86,35.42-98.13,79.33-99.44,71.19-2.18,102.35,84.61,65.52,154.83l-49.94,85.48h73.67v69.78H3391.66v-11.78l93.15-167.92C3497.2,1324.31,3506.76,1284.19,3475.6,1284.19Z" transform="translate(-3294.12 -1165.12)" style="fill:#fff"/><path d="M3733.17,1638.17H3328.12a34,34,0,0,1-34-34V1199.12a34,34,0,0,1,34-34h405.05a34,34,0,0,1,34,34v405.05A34,34,0,0,1,3733.17,1638.17Zm-405.05-465a26,26,0,0,0-26,26v405.05a26,26,0,0,0,26,26h405.05a26,26,0,0,0,26-26V1199.12a26,26,0,0,0-26-26H3328.12Z" transform="translate(-3294.12 -1165.12)" style="fill:#fff"/></svg>