<svg id="Слой_1" data-name="Слой 1" xmlns="http://www.w3.org/2000/svg" width="8.5cm" height="11.32cm" viewBox="0 0 241.03 320.95"><title>30min</title><path d="M3873.87,703.29l-23.94-16.38c-8.62-5.9-12.21-15.81-8-22s15.19-15.46,24.31-20.55l14.58-8.14c9.13-5.09,21.42-16.31,27.32-24.94l46.53-68c5.9-8.62,18.74-18.66,28.54-22.31l57.8-21.51c9.79-3.64,18.17,1.92,18.61,12.36l2.43,57.9c0.44,10.44-4,26-9.93,34.66L4003,676.16c-5.9,8.62-12,24.14-13.45,34.48L3987.21,727c-1.5,10.34-6.19,23.88-10.44,30.09s-14.78,6.46-23.4.56l-26.14-17.88" transform="translate(-3827.59 -491.82)" style="fill:none;stroke:#fff;stroke-linecap:round;stroke-linejoin:round;stroke-width:13px"/><line x1="35.97" y1="208.82" x2="22.14" y2="229.03" style="fill:none;stroke:#fff;stroke-linecap:round;stroke-linejoin:round;stroke-width:13px"/><line x1="100.89" y1="253.24" x2="78.03" y2="286.64" style="fill:none;stroke:#fff;stroke-linecap:round;stroke-linejoin:round;stroke-width:13px"/><line x1="44.16" y1="236.98" x2="30" y2="257.68" style="fill:none;stroke:#f5d211;stroke-linecap:round;stroke-linejoin:round;stroke-width:13px"/><line x1="66.41" y1="264.68" x2="47.14" y2="292.83" style="fill:none;stroke:#f5d211;stroke-linecap:round;stroke-linejoin:round;stroke-width:13px"/><line x1="6.5" y1="314.45" x2="29.53" y2="280.79" style="fill:none;stroke:#fff;stroke-linecap:round;stroke-linejoin:round;stroke-width:13px"/><circle cx="151.12" cy="116.6" r="25.43" style="fill:none;stroke:#f5d211;stroke-linecap:round;stroke-linejoin:round;stroke-width:13px"/></svg>