<svg id="Слой_1" data-name="Слой 1" xmlns="http://www.w3.org/2000/svg" width="11.97cm" height="13.73cm" viewBox="0 0 339.24 389.16"><title>besplat vyezd</title><path d="M612.31,831.7H549V812.2a6.42,6.42,0,0,0-12.84,0v19.5H472.79a6.42,6.42,0,1,0,0,12.84h139.6a6.35,6.35,0,0,0,6.42-6.42A6.48,6.48,0,0,0,612.31,831.7Z" transform="translate(-372.93 -455.38)" style="fill:#fff"/><path d="M546.31,674.52a65.24,65.24,0,0,0-11.7.33v1.27a2.09,2.09,0,0,0,0,.25,6.66,6.66,0,0,0,6,6.49,6.45,6.45,0,0,0,6.81-6.42v-1.8Zm149.2-134h-85.6a6.42,6.42,0,0,0,0,12.84h85.6a3.82,3.82,0,0,1,3.82,3.82V767.8a3.82,3.82,0,0,1-3.82,3.82H389.59a3.82,3.82,0,0,1-3.82-3.82V731.42H673a6.42,6.42,0,1,0,0-12.84h-35.1l-0.22-1.25a42.41,42.41,0,0,0-42-35.39,6.42,6.42,0,0,0,0,12.84,29.79,29.79,0,0,1,28.65,21.9l0.52,1.9H590.14l-0.19-1.28a49.18,49.18,0,0,0-39.5-40.71,9.45,9.45,0,0,1-9.46,9.28h-0.52a9.58,9.58,0,0,1-8.84-9l-0.79.17h0a49.28,49.28,0,0,0-37.18,40.21l-0.19,1.27H458.5l0.52-1.9a29.8,29.8,0,0,1,28.65-21.9,6.42,6.42,0,1,0,0-12.84,42.41,42.41,0,0,0-42,35.39l-0.21,1.25h-64l-0.21-.06a6.34,6.34,0,0,0-8.39,6.08v43.2a16.67,16.67,0,0,0,16.66,16.66H695.51a16.67,16.67,0,0,0,16.66-16.66V557.16A16.67,16.67,0,0,0,695.51,540.5ZM506.84,716.68a35.85,35.85,0,0,1,70,0l0.41,1.83H506.45Z" transform="translate(-372.93 -455.38)" style="fill:#fff"/><path d="M546.4,673a66.64,66.64,0,0,0-11.79.32v2.78a2.09,2.09,0,0,0,0,.25,63.87,63.87,0,0,1,11.56-.36l1.27,0.13v-3Z" transform="translate(-372.93 -455.38)" style="fill:#fff"/><path d="M475.51,540.5H389.59a16.67,16.67,0,0,0-16.66,16.66V695.32a6.42,6.42,0,0,0,12.84,0V557.16a3.82,3.82,0,0,1,3.82-3.82h85.92A6.42,6.42,0,0,0,475.51,540.5Z" transform="translate(-372.93 -455.38)" style="fill:#fff"/><path d="M599.6,606.2l-12.24-19.28a12.7,12.7,0,0,1-2-7V516.68A38.39,38.39,0,0,0,576,491.5l-29.29-33.92a6.31,6.31,0,0,0-4.86-2.2,6.47,6.47,0,0,0-4.87,2.28L508,491.57a38.82,38.82,0,0,0-9.24,25v62.88a12.81,12.81,0,0,1-2.35,7.43l-13,18.78a26.76,26.76,0,0,0-4.85,15.39v15.28a6.35,6.35,0,0,0,6.42,6.42l15.9,0.09v16.77a6.35,6.35,0,0,0,6.42,6.42,6.43,6.43,0,0,0,6.42-6.42V643.76l0.94-1h0.64a6.43,6.43,0,0,0,6.42-6.42,6.35,6.35,0,0,0-6.42-6.42h-23.9v-8.86a14.42,14.42,0,0,1,2.49-8l13.06-18.83a26,26,0,0,0,4.61-14.82V516.6a25.66,25.66,0,0,1,6.12-16.65L542,471.66l24.34,28.2a25.8,25.8,0,0,1,6.2,16.74v63.28a25.7,25.7,0,0,0,4,13.83L588.78,613a14,14,0,0,1,2.15,7.52v9.34H568.15a6.35,6.35,0,0,0-6.42,6.42,6.24,6.24,0,0,0,3.1,5.43l0.74,0.43v17.42A6.43,6.43,0,0,0,572,666a6.35,6.35,0,0,0,6.42-6.42V642.78h18.94a6.35,6.35,0,0,0,6.42-6.42V620.6A26.92,26.92,0,0,0,599.6,606.2Z" transform="translate(-372.93 -455.38)" style="fill:#f5d211"/><path d="M541,635.54a6.35,6.35,0,0,0-6.42,6.42v34.16a2.09,2.09,0,0,0,0,.25,6.66,6.66,0,0,0,6,6.49,6.45,6.45,0,0,0,6.81-6.42V642A6.35,6.35,0,0,0,541,635.54Z" transform="translate(-372.93 -455.38)" style="fill:#fff"/></svg>