<svg id="Слой_1" data-name="Слой 1" xmlns="http://www.w3.org/2000/svg" width="1332.12" height="159.45" viewBox="0 0 1332.12 159.45"><title>cluchavto</title><path d="M1454.59,2428.91c-0.62-11.28-1.4-22.55-5.34-33.36a60.67,60.67,0,0,0-10.51-19,52.9,52.9,0,0,0-23.21-15.82,76.14,76.14,0,0,0-19.23-4.33c-3.86-.3-7.72-0.59-11.58-1a5.75,5.75,0,0,1-1.73-.84h-1.82a9.89,9.89,0,0,1-2.24.85c-7.08.82-14.19,1.45-21.25,2.39a56.57,56.57,0,0,0-20,7c-14.11,7.88-21.77,20.56-25.63,35.72a102.7,102.7,0,0,0-2.89,18.19c-1.1,15.42-.83,30.8,2.23,46.07,1.61,8,4,15.67,8.27,22.69a46.37,46.37,0,0,0,18.29,17.29,58.71,58.71,0,0,0,19.75,6.53c7.95,1.06,15.91,2.14,23.91,2.67,3.86,0.26,7.79-.85,11.7-1.08,12.28-.74,24-3.31,34.62-9.84,9-5.51,15.23-13.39,19.35-22.93a73.38,73.38,0,0,0,5.34-19.44C1454,2450.18,1455.18,2439.58,1454.59,2428.91Zm-31.18,14.59a131.48,131.48,0,0,1-2.08,17.38c-2.31,11.86-8.51,20.89-22.16,24.24-10.24,2.52-20.55,2.27-30.8,1-7.78-1-15-3.9-20.12-10.38a30.78,30.78,0,0,1-5.61-11.82c-3.47-13.47-3.65-27.23-2.94-41,0.37-7.42,1.51-14.83,4.63-21.69a26.66,26.66,0,0,1,14.89-14.24c7.1-2.84,14.47-3.12,21.92-3.28l0.09-.64c6.06,0.91,12.27,1.26,18.13,2.86a28.21,28.21,0,0,1,18.88,16.22C1424.23,2415.38,1424.26,2429.42,1423.41,2443.5Z" transform="translate(-122.62 -2354.64)" style="fill:#fff"/><path d="M354,2354.64a8.15,8.15,0,0,0,2.24.86c5.84,0.4,11.7.53,17.52,1.09,6.27,0.61,12.5,1.59,18.75,2.41,1.73,0.23,3.46.49,5.2,0.66,3.26,0.33,3.8.86,3.8,4.08q0,19.17,0,38.33,0,51.11,0,102.21c0,3.73,0,3.73-3.83,3.73H375.5c-3.31,0-3.31,0-3.31-3.26q0-58.29,0-116.59c0-4.11-.2-4.49-4.36-5.09a58.43,58.43,0,0,0-8.41-.53c-8.44,0-16.88.09-25.31,0.34a27.16,27.16,0,0,0-6.68,1.35,3,3,0,0,0-1.61,1.91,24.46,24.46,0,0,0-.73,4.72c-0.74,9.78-1.36,19.56-2.17,29.33-0.89,10.75-1.91,21.49-2.94,32.23a128.13,128.13,0,0,1-4.6,23.17c-2.11,7.36-4.91,14.35-9.73,20.36a29.44,29.44,0,0,1-17,10.29c-4.64,1-9.43,1.38-14.15,2-1.93.27-2.72-.51-2.87-2.48-0.44-5.68-1-11.35-1.6-17-0.2-2,.5-2.81,2.49-3.25a33.23,33.23,0,0,0,8.56-2.75c3.25-1.74,5-5.08,6.23-8.46,3.92-10.85,5.59-22.15,6.55-33.6,0.81-9.69,1.95-19.36,2.79-29,1.25-14.46,2.36-28.93,3.57-43.39,0.16-1.89.51-3.77,0.76-5.65a3.14,3.14,0,0,1,3-2.91,339.35,339.35,0,0,1,39.4-4.2,8.9,8.9,0,0,0,2.41-.89H354Z" transform="translate(-122.62 -2354.64)" style="fill:#fff"/><path d="M639.53,2419c-0.79-11.73-2.81-23.15-7.88-33.89a46,46,0,0,0-25.24-23.75,68.23,68.23,0,0,0-26.21-5c-5.85,0-11.71-.13-17.55.14a65.75,65.75,0,0,0-28.76,7.6c-13.44,7.27-20.44,19.23-23.92,33.55-1.39,5.73-2.11,11.63-3.11,17.47-0.22,1.26-.73,2.13-2.18,2.12q-12,0-24,0a2.28,2.28,0,0,1-2.46-2.42c-0.06-.91-0.06-1.82-0.06-2.73,0-16.05,0-32.09,0-48.14,0-2.16-.67-3-2.87-2.93-7.76.1-15.51,0-23.27,0-3.19,0-3.19,0-3.19,3.16v70.26q0,35.25,0,70.5c0,2.89,0,2.94,2.93,2.94q11.52,0,23,0c3.3,0,3.33,0,3.33-3.29q0-28.74,0-57.49c0-3.52.44-4,3.9-4q10.14,0,20.3,0c3.5,0,4,.44,4.1,3.89,0.5,13.64,2.85,26.83,9.62,38.91,5.89,10.53,14.82,17.5,26,21.72,7.31,2.76,15,3.78,22.71,4.46a97.12,97.12,0,0,0,31.22-2.35,55.62,55.62,0,0,0,17.91-7.51c9.25-6.07,15.49-14.53,19.55-24.77a89.41,89.41,0,0,0,5.81-24.93A206.89,206.89,0,0,0,639.53,2419Zm-31.15,34.28c-0.85,9-2.84,17.74-9.11,24.78-4.36,4.89-10,7.32-16.43,8.46a64.21,64.21,0,0,1-21.34-.18c-10-1.58-17.5-6.58-21-17.62-4.19-13.18-3.32-26.73-3.35-40.22,0-3.19.22-6.38,0.35-9.57,0.32-7.66,1.61-15.14,5-22a21.37,21.37,0,0,1,13.59-11.32c9.83-3,19.87-3,29.79-1.2s16.56,7.45,19.78,17.28c3,9.07,3,18.39,3.59,30.14C609.05,2437.37,609.13,2445.38,608.38,2453.32Z" transform="translate(-122.62 -2354.64)" style="fill:#fff"/><path d="M1126.78,2451.19a40.41,40.41,0,0,0-15.41-22.38c-2.09-1.56-2.29-2.08-.63-4.14a36.92,36.92,0,0,0,8.25-20.07c1-10.49-1.26-20-7.47-28.57-6.5-9-15.69-13.77-26.11-16.17-6.77-1.56-13.78-2.19-20.71-2.93-10.59-1.13-21.12.43-31.6,1.49-6.61.67-13.08,2.58-19.64,3.75-2.51.45-2.83,1.82-2.82,4q0.09,34.66,0,69.33h0.09q0,34.79,0,69.56c0,2,.35,3.65,2.68,4,3.37,0.57,6.72,1.26,10.11,1.66a293.83,293.83,0,0,0,38.22,1.89c9.22-.1,18.32-0.73,27.32-3a65.45,65.45,0,0,0,19.62-8.11,40.46,40.46,0,0,0,19-28.47A51,51,0,0,0,1126.78,2451.19Zm-86.65-63.69c0-2.78.42-3.25,3.13-3.26,8.73,0,17.48-.34,26.2.12,6,0.31,12.09,1.55,16.67,6.18a11.15,11.15,0,0,1,3.36,7.5c0.26,4.84.29,9.62-3.18,13.56a17,17,0,0,1-11.77,5.78c-10.52.7-21.08,0.79-31.62,1.14-2.1.07-2.82-1.06-2.81-3,0-4.71,0-9.42,0-14.13S1040.09,2392.14,1040.13,2387.5Zm48.79,93.45a28.19,28.19,0,0,1-13.94,5.12c-10.64,1.09-21.32,2-32.05.63-2.11-.28-2.89-1-2.85-3.11,0.09-6.31,0-12.62,0-18.92s0-12.46,0-18.69c0-3.14.46-3.61,3.53-3.6,9,0.06,18-.15,26.89.33a69,69,0,0,1,15.61,2.69c5.22,1.54,11.06,5.46,11.46,15C1098,2468.66,1095.93,2475.82,1088.92,2481Z" transform="translate(-122.62 -2354.64)" style="fill:#fff"/><path d="M965.09,2484.6c-8.59-1.72-8.15-.2-8.35-9.39-0.24-11.25-.06-22.5-0.06-33.76h-0.36c0-13.22.16-26.45,0-39.68a51.08,51.08,0,0,0-6.72-25.46A35.84,35.84,0,0,0,931.3,2361a61.41,61.41,0,0,0-15.69-3.53c-11.06-1.36-22,0-32.95,1.29a130.28,130.28,0,0,0-19.07,4.17,87,87,0,0,0-13.75,5.26c-4.2,2-4.06,2.29-2,6.54,0.1,0.2.16,0.43,0.26,0.63,2.89,5.58,5.86,11.12,8.63,16.75,1,2.07,2.21,2.25,4.12,1.36a101.79,101.79,0,0,1,20.27-6.53,109.67,109.67,0,0,1,29.16-2.8c9.21,0.33,14.38,6.47,15.87,14,0.94,4.72.77,9.67,1,14.52,0.11,2.12-1,3.17-3.19,3.26-3,.14-6.06.4-9.09,0.69-8.62.82-17.23,1.72-25.86,2.51-9.39.87-18.65,2.17-27.39,6.09-11.16,5-18.08,13.6-21.07,25.26a59.83,59.83,0,0,0-1.55,20.83c0.81,8.12,2.31,16.11,6.56,23.25,8.52,14.31,21.94,19.09,37.7,18.73,9.71-.22,19.41-1.06,28.84-3.69,6.27-1.75,12.59-3.34,18.77-5.37,1.9-.62,3.08-0.47,4.46.75a25.14,25.14,0,0,0,15,5.87c4.69,0.37,9.42.19,14.13,0.32,1.66,0,2.24-.65,2.32-2.29,0.33-6.91.77-13.81,1.19-20.72C968.19,2485,968.16,2485.21,965.09,2484.6Zm-37.87-8.68c0,2.92-.75,3.63-3.6,4.28-5.38,1.25-10.69,2.86-16.11,3.89-8.5,1.6-17.08,3.19-25.78,2.18-4.93-.57-8.47-3.63-10.45-8.18-2.89-6.65-2.87-13.67-1.48-20.58,1-5,4.34-8.64,9.09-10.69,5-2.16,10.32-2.86,15.74-3.21,9.47-.6,18.93-1.4,28.39-2.21,3.53-.3,4.2.17,4.2,3.74q0,7.64,0,15.28C927.23,2465.59,927.24,2470.76,927.22,2475.92Z" transform="translate(-122.62 -2354.64)" style="fill:#fff"/><path d="M239.47,2361.06c-0.62,1-1,1.63-1.42,2.2q-24.5,30.72-49,61.42c-2.34,2.93-2.09,2.69.39,5.47a198.74,198.74,0,0,1,14.41,17.28c6.12,8.65,11.55,17.79,17.32,26.69,2.54,3.92,5.5,7.48,9.64,9.82,1.3,0.73,2.89,1,4.16,1.73a4,4,0,0,1,1.85,2.41c0.62,5.74,1,11.51,1.54,17.25,0.19,2-.42,2.78-2.48,2.72-3.42-.11-6.85-0.18-10.26,0-9.45.48-17-3.53-22.57-10.63-6.15-7.78-11.66-16.07-17.27-24.26-4.88-7.12-9.33-14.54-14.35-21.56a22.57,22.57,0,0,0-12-8.6c-0.36-.11-0.7-0.29-1.07-0.4-5.13-1.51-7-.17-7,5.1q0,28.51,0,57c0,3.09-.18,3.29-3.18,3.3q-11.29,0-22.58,0c-2.75,0-3-.24-3-3q0-70.48,0-141c0-3,.29-3.32,3.22-3.32q11.18,0,22.35,0c2.82,0,3.16.35,3.16,3.17q0,26.69,0,53.38c0,1.76-.51,4.17,1.87,4.57,2.56,0.42,5.49,1.25,7.6-1.43l24.81-31.49c6.9-8.77,13.76-17.58,20.77-26.25a5.67,5.67,0,0,1,3.83-1.86c8.89-.16,17.79-0.09,26.69-0.07A20.75,20.75,0,0,1,239.47,2361.06Z" transform="translate(-122.62 -2354.64)" style="fill:#fff"/><path d="M794.41,2434.51q0,34.9,0,69.8c0,3.32,0,3.32-3.26,3.32-7.76,0-15.51-.06-23.26,0-2.08,0-2.78-.62-2.77-2.73,0.07-13.15,0-26.31,0-39.46,0-.84,0-1.67,0-2.51-0.05-1.62-.92-2.21-2.42-1.71-12.91,4.27-26.22,4.95-39.63,4.17-8.49-.49-16.91-1.75-24.5-6.07A30.53,30.53,0,0,1,685.21,2444c-4.89-11.8-5.79-24.31-6.08-36.83-0.33-14.51-.07-29-0.15-43.56,0-2.16.6-2.87,2.87-2.83q11.86,0.23,23.72,0c2.29,0,2.86.75,2.85,2.88-0.06,14.14-.16,28.29.07,42.42a126.47,126.47,0,0,0,1.58,18.82c1,5.78,3.22,10.47,11.57,11.67a85.74,85.74,0,0,0,31.65-1.53c2.8-.64,5.59-1.35,8.4-2s3.46-1.52,3.46-4.44q0-32,0-64.09c0-3.66,0-3.66,3.65-3.66h22.35c3.24,0,3.26,0,3.26,3.36Q794.41,2399.38,794.41,2434.51Z" transform="translate(-122.62 -2354.64)" style="fill:#fff"/><path d="M1202.17,2446.2q0-28.51,0-57c0-5,0-5.21-5.15-5-8.88.44-17.74,1.06-26.61,1.7a47.07,47.07,0,0,0-5.59,1.07,2.94,2.94,0,0,1-3.65-1.79c-3.88-7.36-8-14.63-12-21.93-1.34-2.44-.87-3.27,1.81-3.55a642.77,642.77,0,0,1,86.53-3.1c12.36,0.35,24.7,1.67,37,2.55,2.5,0.18,5,.36,7.5.57,2.76,0.23,3.3,1.18,2.16,3.72l-4.67,10.36c-1.62,3.59-3.26,7.16-4.85,10.76-0.82,1.85-1.86,2.66-4.17,2.44q-17.12-1.62-34.28-2.76c-4.82-.33-4.84-0.1-4.84,4.63q0,57.71,0,115.43c0,3.46,0,3.47-3.55,3.47-7.68,0-15.36-.06-23,0-2.1,0-2.74-.66-2.73-2.76C1202.2,2485.44,1202.17,2465.82,1202.17,2446.2Z" transform="translate(-122.62 -2354.64)" style="fill:#fff"/></svg>