<svg id="Слой_1" data-name="Слой 1" xmlns="http://www.w3.org/2000/svg" width="31.43cm" height="15.39cm" viewBox="0 0 891 436.14"><title>conveyor</title><ellipse cx="451.42" cy="431.47" rx="438.59" ry="4.67" style="fill:#f2f2f2"/><rect x="99.17" y="288.47" width="22.67" height="143" style="fill:#779e9e"/><rect x="268.76" y="288.47" width="22.67" height="143" style="fill:#779e9e"/><rect x="626.81" y="288.47" width="22.67" height="143" style="fill:#779e9e"/><rect x="774.1" y="288.47" width="22.67" height="143" style="fill:#779e9e"/><rect x="7.5" y="185.57" width="876" height="95.9" rx="47.95" ry="47.95" style="fill:none;stroke:#95b4b5;stroke-miterlimit:10;stroke-width:15px"/><circle cx="57.67" cy="233.52" r="36.05" style="fill:#aaccce"/><circle cx="57.67" cy="233.52" r="15.05" style="fill:#779e9e"/><circle cx="833.96" cy="233.52" r="36.05" style="fill:#aaccce"/><circle cx="833.96" cy="233.52" r="15.05" style="fill:#779e9e"/><circle cx="451.42" cy="233.52" r="36.05" style="fill:#b3c5c7"/><circle cx="451.42" cy="233.52" r="15.05" style="fill:#93abad"/><circle cx="653.19" cy="233.52" r="36.05" style="fill:#aaccce"/><circle cx="653.19" cy="233.52" r="15.05" style="fill:#779e9e"/><circle cx="265.05" cy="233.52" r="36.05" style="fill:#aaccce"/><circle cx="265.05" cy="233.52" r="15.05" style="fill:#779e9e"/><circle cx="171.86" cy="206.02" r="8.55" style="fill:#aaccce"/><circle cx="171.86" cy="261.02" r="8.55" style="fill:#aaccce"/><circle cx="358.23" cy="206.02" r="8.55" style="fill:#b8c3c9"/><circle cx="358.23" cy="261.02" r="8.55" style="fill:#b8c3c9"/><circle cx="552.31" cy="206.02" r="8.55" style="fill:#b8c3c9"/><circle cx="552.31" cy="261.02" r="8.55" style="fill:#b8c3c9"/><circle cx="743.57" cy="206.02" r="8.55" style="fill:#aaccce"/><circle cx="743.57" cy="261.02" r="8.55" style="fill:#aaccce"/><rect x="332.96" y="22" width="236.93" height="409.47" style="fill:#779e9e"/><rect x="332.96" width="236.93" height="22" style="fill:#b3c5c7"/><rect x="332.96" y="247.22" width="236.93" height="82.5" style="fill:#b3c5c7"/><line x1="354.96" y1="307.35" x2="354.96" y2="261.02" style="fill:none;stroke:#799d9d;stroke-miterlimit:10;stroke-width:4px"/><path d="M349.46,277.47h11a2.83,2.83,0,0,1,2.83,2.83v1.17a0,0,0,0,1,0,0H346.62a0,0,0,0,1,0,0v-1.17A2.83,2.83,0,0,1,349.46,277.47Z" style="fill:#dd6a65"/><line x1="394.96" y1="307.35" x2="394.96" y2="261.02" style="fill:none;stroke:#799d9d;stroke-miterlimit:10;stroke-width:4px"/><path d="M389.45,295.47h11a2.83,2.83,0,0,1,2.83,2.83v1.17a0,0,0,0,1,0,0H386.62a0,0,0,0,1,0,0V298.3A2.83,2.83,0,0,1,389.45,295.47Z" style="fill:#e88f23"/><line x1="434.96" y1="307.35" x2="434.96" y2="261.02" style="fill:none;stroke:#799d9d;stroke-miterlimit:10;stroke-width:4px"/><path d="M429.46,287.47h11a2.83,2.83,0,0,1,2.83,2.83v1.17a0,0,0,0,1,0,0H426.62a0,0,0,0,1,0,0v-1.17A2.83,2.83,0,0,1,429.46,287.47Z" style="fill:#00a79d"/><rect x="477.96" y="261.02" width="70.5" height="46.33" rx="11" ry="11" style="fill:#ffbc45"/><line x1="481.51" y1="304.46" x2="545.05" y2="264.06" style="fill:none;stroke:#fff;stroke-miterlimit:10"/><path d="M497,794.56h-4.72V775.89H497v18.67Z" transform="translate(-144.04 -728.98)" style="fill:#e4efef"/><path d="M500,775.89h7.46a6.61,6.61,0,1,1,0,13.21h-2.77v5.46H500V775.89Zm7.46,9c2.85,0,2.85-4.64,0-4.61h-2.74v4.61h2.74Z" transform="translate(-144.04 -728.98)" style="fill:#e4efef"/><path d="M521,794.56H516.3V775.89H521V783h5.38v-7.07h4.75v18.67h-4.75v-7H521v7Z" transform="translate(-144.04 -728.98)" style="fill:#e4efef"/><path d="M533.68,782c0-4.3,3.85-6.41,7.73-6.41s7.75,2.14,7.75,6.41v6.38c0,4.27-3.85,6.41-7.73,6.41s-7.75-2.14-7.75-6.41V782Zm4.72,6.38c0,1.37,1.53,2,3,2s3-.69,3-2V782c0-1.45-1.56-2.11-3.09-2.11s-3,.74-3,2.11v6.38Z" transform="translate(-144.04 -728.98)" style="fill:#e4efef"/><path d="M551.66,775.89h4.48l4.51,8,1.58,3.74,0.13,0s-0.5-3.22-.53-3.22v-8.46h4.69v18.67h-4.77l-4.22-7.36-1.63-3.74-0.13,0,0.61,3.61v7.46h-4.72V775.89Z" transform="translate(-144.04 -728.98)" style="fill:#e4efef"/><path d="M574.26,783.22h7.57v4.09h-7.57v2.8h8.23v4.46h-13V775.89h13v4.43h-8.23v2.9Z" transform="translate(-144.04 -728.98)" style="fill:#e4efef"/><path d="M594.56,783.22h7.57v4.09h-7.57v2.8h8.23v4.46h-13V775.89h13v4.43h-8.23v2.9Z" transform="translate(-144.04 -728.98)" style="fill:#e4efef"/><path d="M615.27,775.89h5.48l-5.22,9.36,5.22,9.31h-5.48L612,788.2l-3.19,6.36h-5.51l5.25-9.31-5.25-9.36h5.51l3.19,6.38Z" transform="translate(-144.04 -728.98)" style="fill:#e4efef"/><path d="M622.15,775.89h7.46a6.61,6.61,0,1,1,0,13.21h-2.77v5.46h-4.72V775.89Zm7.46,9c2.85,0,2.85-4.64,0-4.61h-2.74v4.61h2.74Z" transform="translate(-144.04 -728.98)" style="fill:#e4efef"/><path d="M644.06,788.63h-0.84v5.93h-4.77V775.89h7.46c3.85,0,6.83,1.77,6.94,6.14,0,3.45-1.4,5.41-3.67,6.12l5.09,6.41h-5.88Zm1.93-4.06a2.14,2.14,0,1,0,0-4.27h-2.77v4.27H646Z" transform="translate(-144.04 -728.98)" style="fill:#e4efef"/><path d="M660.15,783.22h7.57v4.09h-7.57v2.8h8.23v4.46h-13V775.89h13v4.43h-8.23v2.9Z" transform="translate(-144.04 -728.98)" style="fill:#e4efef"/><path d="M673,788.65c1.87,2.27,6,2.37,6.12.37,0.05-1.05-1.66-1.66-3.19-1.87-3-.47-5.75-2.37-5.75-5.93s3.32-5.59,6.75-5.59a7.67,7.67,0,0,1,6.38,3L680.19,781c-2-2.08-5.3-2-5.38.16,0.05,0.9,1,1.42,2.48,1.74,3.32,0.61,6.65,1.77,6.43,6.36-0.16,3.61-4,5.59-7.38,5.59a8.18,8.18,0,0,1-6.36-3.38Z" transform="translate(-144.04 -728.98)" style="fill:#e4efef"/><path d="M687.84,788.65c1.87,2.27,6,2.37,6.12.37,0.05-1.05-1.66-1.66-3.19-1.87-3-.47-5.75-2.37-5.75-5.93s3.32-5.59,6.75-5.59a7.67,7.67,0,0,1,6.38,3L695.06,781c-2-2.08-5.3-2-5.38.16,0.05,0.9,1,1.42,2.48,1.74,3.32,0.61,6.65,1.77,6.43,6.36-0.16,3.61-4,5.59-7.38,5.59a8.18,8.18,0,0,1-6.36-3.38Z" transform="translate(-144.04 -728.98)" style="fill:#e4efef"/><path d="M206.5,839.75V907h36.33V839.75H206.5Zm34,55.5H208.83V847H240.5v48.25Z" transform="translate(-144.04 -728.98)" style="fill:#ffbc45"/><circle cx="80.62" cy="172.85" r="2.92" style="fill:#fff"/><line x1="78.33" y1="114.6" x2="86.42" y2="114.6" style="fill:none;stroke:#fff;stroke-miterlimit:10"/><line x1="76.58" y1="114.6" x2="74.83" y2="114.6" style="fill:none;stroke:#fff;stroke-miterlimit:10"/><path d="M305.9,854v53H269.57V839.75h25.1a4.72,4.72,0,0,1,0,1.45c-0.47,1.77-.17,4.33,1.55,4.9-0.51.41-.23,0.23-0.43,0.9a0.56,0.56,0,0,0,0,.12,3.45,3.45,0,0,0,5.69,3.41,3.45,3.45,0,0,0,2.16,3.63,2.17,2.17,0,0,0,.36.12c0.23,0.06-.11-0.88.14-0.77A3.27,3.27,0,0,0,305.9,854Z" transform="translate(-144.04 -728.98)" style="fill:#ef4848"/><path d="M303.57,854.38v40.88H271.9V847h23.86a0.56,0.56,0,0,0,0,.12,3.45,3.45,0,0,0,5.69,3.41A3.73,3.73,0,0,0,303.57,854.38Z" transform="translate(-144.04 -728.98)" style="fill:#fff;stroke:#ef4848;stroke-linecap:round;stroke-linejoin:round;stroke-width:2px"/><circle cx="143.69" cy="172.85" r="2.92" style="fill:#fff"/><line x1="141.4" y1="114.6" x2="149.48" y2="114.6" style="fill:none;stroke:#fff;stroke-miterlimit:10"/><line x1="139.65" y1="114.6" x2="137.9" y2="114.6" style="fill:none;stroke:#fff;stroke-miterlimit:10"/><path d="M324.75,815.5V907H393.5V815.5H324.75Zm64.34,78.25H329.16V825.36h59.93v68.39Z" transform="translate(-144.04 -728.98)" style="fill:#58595b"/><circle cx="215.08" cy="171.85" r="2.92" style="fill:#fff"/><line x1="215.08" y1="91.6" x2="213.33" y2="91.6" style="fill:none;stroke:#fff;stroke-miterlimit:10"/><rect x="414.42" y="417.52" width="31" height="6" rx="3" ry="3" style="fill:#58595b"/><rect x="457.92" y="417.52" width="30.5" height="6" rx="3" ry="3" style="fill:#58595b"/><rect x="424.08" y="420.15" width="11.68" height="6.75" style="fill:#58595b"/><rect x="467.33" y="420.15" width="11.68" height="6.75" style="fill:#58595b"/><rect x="265.74" y="111.32" width="36.33" height="67.25" style="fill:#58595b"/><rect x="268.08" y="118.57" width="31.67" height="48.25" style="fill:#fff"/><circle cx="283.91" cy="173.4" r="2.92" style="fill:#fff"/><line x1="281.62" y1="115.15" x2="289.7" y2="115.15" style="fill:none;stroke:#fff;stroke-miterlimit:10"/><line x1="279.87" y1="115.15" x2="278.12" y2="115.15" style="fill:none;stroke:#fff;stroke-miterlimit:10"/><line x1="273.21" y1="126.69" x2="279.63" y2="133.12" style="fill:none;stroke:#58595b;stroke-linecap:round;stroke-linejoin:round;stroke-width:2px"/><line x1="279.87" y1="127" x2="273.44" y2="133.43" style="fill:none;stroke:#58595b;stroke-linecap:round;stroke-linejoin:round;stroke-width:2px"/><line x1="288.83" y1="126.69" x2="295.25" y2="133.12" style="fill:none;stroke:#58595b;stroke-linecap:round;stroke-linejoin:round;stroke-width:2px"/><line x1="295.49" y1="127" x2="289.06" y2="133.43" style="fill:none;stroke:#58595b;stroke-linecap:round;stroke-linejoin:round;stroke-width:2px"/><line x1="295.53" y1="156.14" x2="272.29" y2="156.14" style="fill:none;stroke:#58595b;stroke-linecap:round;stroke-linejoin:round;stroke-width:2px"/><line x1="194.38" y1="109.69" x2="200.81" y2="116.12" style="fill:none;stroke:#58595b;stroke-linecap:round;stroke-linejoin:round;stroke-width:2px"/><line x1="201.04" y1="110" x2="194.61" y2="116.43" style="fill:none;stroke:#58595b;stroke-linecap:round;stroke-linejoin:round;stroke-width:2px"/><line x1="230" y1="109.69" x2="236.43" y2="116.12" style="fill:none;stroke:#58595b;stroke-linecap:round;stroke-linejoin:round;stroke-width:2px"/><line x1="236.66" y1="110" x2="230.23" y2="116.43" style="fill:none;stroke:#58595b;stroke-linecap:round;stroke-linejoin:round;stroke-width:2px"/><line x1="226.7" y1="148.14" x2="203.46" y2="148.14" style="fill:none;stroke:#58595b;stroke-linecap:round;stroke-linejoin:round;stroke-width:2px"/><line x1="132.99" y1="126.69" x2="139.41" y2="133.12" style="fill:none;stroke:#ef4848;stroke-linecap:round;stroke-linejoin:round;stroke-width:2px"/><line x1="139.65" y1="127" x2="133.22" y2="133.43" style="fill:none;stroke:#ef4848;stroke-linecap:round;stroke-linejoin:round;stroke-width:2px"/><line x1="155.31" y1="156.14" x2="132.07" y2="156.14" style="fill:none;stroke:#ef4848;stroke-linecap:round;stroke-linejoin:round;stroke-width:2px"/><line x1="69.92" y1="126.69" x2="76.35" y2="133.12" style="fill:none;stroke:#ffbc45;stroke-linecap:round;stroke-linejoin:round;stroke-width:2px"/><line x1="76.58" y1="127" x2="70.16" y2="133.43" style="fill:none;stroke:#ffbc45;stroke-linecap:round;stroke-linejoin:round;stroke-width:2px"/><line x1="85.54" y1="126.69" x2="91.97" y2="133.12" style="fill:none;stroke:#ffbc45;stroke-linecap:round;stroke-linejoin:round;stroke-width:2px"/><line x1="92.2" y1="127" x2="85.78" y2="133.43" style="fill:none;stroke:#ffbc45;stroke-linecap:round;stroke-linejoin:round;stroke-width:2px"/><line x1="92.24" y1="156.14" x2="69.01" y2="156.14" style="fill:#f8ce6a;stroke:#ffbc45;stroke-linecap:round;stroke-linejoin:round;stroke-width:2px"/><rect x="589.29" y="110.77" width="36.33" height="67.25" style="fill:#ffbc45"/><rect x="591.62" y="118.02" width="31.67" height="48.25" style="fill:#fff"/><circle cx="607.46" cy="172.85" r="2.92" style="fill:#fff"/><line x1="605.16" y1="114.6" x2="613.25" y2="114.6" style="fill:none;stroke:#fff;stroke-miterlimit:10"/><line x1="603.41" y1="114.6" x2="601.66" y2="114.6" style="fill:none;stroke:#fff;stroke-miterlimit:10"/><rect x="651.52" y="110.77" width="36.33" height="67.25" style="fill:#ef4848"/><rect x="653.85" y="118.02" width="31.67" height="48.25" style="fill:#fff"/><circle cx="669.68" cy="172.85" r="2.92" style="fill:#fff"/><line x1="667.39" y1="114.6" x2="675.48" y2="114.6" style="fill:none;stroke:#fff;stroke-miterlimit:10"/><line x1="665.64" y1="114.6" x2="663.89" y2="114.6" style="fill:none;stroke:#fff;stroke-miterlimit:10"/><rect x="802.57" y="111.32" width="36.33" height="67.25" style="fill:#58595b"/><rect x="804.91" y="118.57" width="31.67" height="48.25" style="fill:#fff"/><circle cx="810.74" cy="173.4" r="2.92" style="fill:#fff"/><line x1="818.45" y1="115.15" x2="826.53" y2="115.15" style="fill:none;stroke:#fff;stroke-miterlimit:10"/><line x1="816.7" y1="115.15" x2="814.95" y2="115.15" style="fill:none;stroke:#fff;stroke-miterlimit:10"/><rect x="400.39" y="101.94" width="102.06" height="88.67" style="fill:#b3c5c7"/><circle cx="451.42" cy="146.27" r="22.02" style="fill:#5de895"/><circle cx="451.42" cy="146.27" r="17.54" style="fill:#00bf54"/><rect x="525.93" y="119.52" width="20.72" height="53.5" rx="10.36" ry="10.36" style="fill:#799d9d"/><rect x="533.96" y="111.52" width="4.66" height="39.17" rx="2.33" ry="2.33" style="fill:#fff"/><circle cx="536.29" cy="110.77" r="5.58" style="fill:#5de895"/><circle cx="598.5" cy="131.65" r="2.92" style="fill:#ffbc45"/><circle cx="616.16" cy="131.65" r="2.92" style="fill:#ffbc45"/><path d="M739.46,873.79a12,12,0,0,0,24.08,0" transform="translate(-144.04 -728.98)" style="fill:#ffbc45"/><circle cx="660.73" cy="131.65" r="2.92" style="fill:#ef4848"/><circle cx="678.39" cy="131.65" r="2.92" style="fill:#ef4848"/><path d="M801.69,873.79a12,12,0,0,0,24.08,0" transform="translate(-144.04 -728.98)" style="fill:#ef4848"/><circle cx="811.78" cy="131.65" r="2.92" style="fill:#58595b"/><circle cx="829.45" cy="131.65" r="2.92" style="fill:#58595b"/><path d="M952.74,873.79a12,12,0,0,0,24.08,0" transform="translate(-144.04 -728.98)" style="fill:#58595b"/><line x1="342.61" y1="125.73" x2="391.27" y2="125.73" style="fill:none;stroke:#b3c5c7;stroke-miterlimit:10;stroke-width:5px"/><line x1="342.61" y1="135.73" x2="391.27" y2="135.73" style="fill:none;stroke:#b3c5c7;stroke-miterlimit:10;stroke-width:5px"/><line x1="342.61" y1="145.73" x2="391.27" y2="145.73" style="fill:none;stroke:#b3c5c7;stroke-miterlimit:10;stroke-width:5px"/><line x1="342.61" y1="155.73" x2="391.27" y2="155.73" style="fill:none;stroke:#b3c5c7;stroke-miterlimit:10;stroke-width:5px"/><line x1="342.61" y1="165.73" x2="391.27" y2="165.73" style="fill:none;stroke:#b3c5c7;stroke-miterlimit:10;stroke-width:5px"/><rect x="408.46" y="209.48" width="5.9" height="16.33" rx="2.95" ry="2.95" style="fill:#ffbc45"/><rect x="428.46" y="209.48" width="5.9" height="16.33" rx="2.95" ry="2.95" style="fill:#ef4848"/><rect x="448.46" y="209.48" width="5.9" height="16.33" rx="2.95" ry="2.95" style="fill:#00a79d"/><rect x="468.46" y="209.48" width="5.9" height="16.33" rx="2.95" ry="2.95" style="fill:#ef4848"/><rect x="488.46" y="209.48" width="5.9" height="16.33" rx="2.95" ry="2.95" style="fill:#b3c5c7"/><g style="opacity:0.5700000000000001"><path d="M602.41,874.66a5.75,5.75,0,0,1,2.75-4.84,5.94,5.94,0,0,0-4.65-2.52c-2-.2-3.86,1.17-4.87,1.17s-2.55-1.14-4.2-1.11a6.22,6.22,0,0,0-5.26,3.19c-2.24,3.89-.57,9.66,1.61,12.81,1.07,1.54,2.34,3.28,4,3.22s2.22-1,4.17-1,2.49,1,4.2,1,2.83-1.57,3.89-3.12a14,14,0,0,0,1.76-3.62,5.62,5.62,0,0,1-3.41-5.14h0Zm-3.2-9.45a5.6,5.6,0,0,0,1.32-4.06,5.7,5.7,0,0,0-3.75,1.93,5.33,5.33,0,0,0-1.35,3.93,4.72,4.72,0,0,0,3.77-1.8h0Zm0,0" transform="translate(-144.04 -728.98)" style="fill:#5de895"/></g><path d="M854.8,814.88v91.5h68.75v-91.5H854.8Zm64.34,78.25H859.21V824.74h59.93v68.39Z" transform="translate(-144.04 -728.98)" style="fill:#58595b"/><circle cx="745.13" cy="171.23" r="2.92" style="fill:#fff"/><line x1="745.13" y1="90.98" x2="743.38" y2="90.98" style="fill:none;stroke:#fff;stroke-miterlimit:10"/><circle cx="729.79" cy="112.35" r="5.05" style="fill:#58595b"/><circle cx="760.38" cy="112.35" r="5.05" style="fill:#58595b"/><path d="M868.49,864.12a20.85,20.85,0,1,0,41.7,0" transform="translate(-144.04 -728.98)" style="fill:#58595b"/></svg>