<svg id="Слой_1" data-name="Слой 1" xmlns="http://www.w3.org/2000/svg" width="775.14" height="485.75" viewBox="0 0 775.14 485.75"><title>galya</title><path d="M3673.78,2337.9c-6.6-8.52-14.15-16.3-22.17-25.44,1.23-.8,3-1.42,4-2.68,5-6.8,10.3-13.48,14.55-20.76,3.78-6.48,3.53-13.8.57-20.75-2.1-4.93-5.67-8.24-11.42-8.18s-8.83,3.61-10.56,8.44a119.18,119.18,0,0,0-3,11.58c-2.07,8.39-4.32,16.7-9.48,24-14.34-5-28.86-6.19-43.59-4.87-10.39.93-20.48,3.12-28.92,9.79-12.7,10-11.2,27.43,3,35.26,6.05,3.35,12.57,4.11,19.37,3.26,14.66-1.82,27.78-7.85,40.45-15,4.89-2.76,9.6-5.83,14.23-8.66,26.31,23.59,40.76,52.68,42.7,87.68,0.91,16.58-1,32.74-11.9,46.34-9.22,11.53-20.93,10.84-29.11-1.44-5.9-8.85-7.76-18.8-6.95-29.11,1.09-13.93,2.93-27.81,4.33-41.72,0.91-9-3.67-16.35-12.11-19.68-5.11-2-8.36-.78-10.36,4.34a44.49,44.49,0,0,0-2.64,9.08c-2.1,13.15-3.21,26.51-6.22,39.43-2.12,9.09-6.36,17.76-10.46,26.23-1.05,2.15-5.15,2.82-7.84,4.17-1.2-2.39-3.37-4.77-3.4-7.17a136.91,136.91,0,0,1,1.32-19.39c1.69-12.7,4.2-25.31,5.52-38,1.11-10.64-3.84-16.84-13.51-19-6.59-1.47-10,.46-11.23,7.06-1.64,9-3.17,18-4.15,27.13-1.58,14.78-3.63,29.4-9.28,43.27-2.75,6.75-6.7,12.68-12.85,16.83-3.7,2.5-6.37,1.73-7.74-2.47a32.13,32.13,0,0,1-1.47-8.82c-0.5-17.12,3.73-33.34,10.15-49,2.2-5.4,1.52-10-2.53-13.64a38.22,38.22,0,0,0-10.32-6.72c-5.88-2.54-10.08-1.1-12.92,4.68a75.2,75.2,0,0,0-5.07,15c-1.53,6.22-3.68,8.66-10.33,10.08-1.26-5.8-2-11.75-3.88-17.35-2.92-8.88-8.72-12.34-18-11.6-8.07.65-14.54,4.5-19.88,10.37-6.89,7.58-8.49,17.4-4.35,25.92a23.4,23.4,0,0,0,23,12.86c4.1-.3,8.14-1.39,13-2.26-0.56,4.16-.87,8-1.61,11.66-2.13,10.75-4.24,21.51-6.84,32.15-0.48,2-3.22,3.36-4.91,5a62.08,62.08,0,0,1-4.69-5.86,6.68,6.68,0,0,1-.57-3.89c0.36-3.64,1-7.25,1.45-10.87,0.8-6.14-4.25-12.7-10.55-13.73-5.93-1-10.06,2-10.89,9.34-1.29,11.28-8.53,18.85-15.48,26.62-1.43,1.59-4.24,1.94-6.41,2.86-0.8-2.08-2.29-4.15-2.29-6.23,0-19.91-1.34-39.9,5.35-59.32A18.09,18.09,0,0,0,3422.5,2391c-5.92-1.61-9.89-.09-12.31,5.42a39.7,39.7,0,0,0-3.39,11.42c-1.3,12.25-1.57,24.62-3.23,36.81-1.86,13.66-4.55,27.23-7.46,40.71-0.54,2.53-3.81,4.47-5.82,6.68-1.31-2.64-3.8-5.34-3.7-7.94,0.25-6.58,1.53-13.15,2.62-19.69,1.25-7.41-4.41-15.29-12.25-16.77-5.62-1-10.86,3.58-12.26,11.15-2,10.88-2.69,21.8-.73,32.8,0.23,1.3.2,3.16-.55,4-2.55,2.94-5.48,5.55-8.78,8.79-0.14-1.75-.27-2.69-0.28-3.63-0.35-20-.73-40-1-60-0.1-7.29-2.78-13.33-8.39-17.92-3.3-2.7-7-4.85-11.45-2.81-4.15,1.92-3.65,6-3.71,9.62-0.16,10.16.14,20.33-.16,30.49-0.42,14.27-2.19,28.36-10.19,40.66-2.1,3.22-5.85,7.76-8.6,7.6-4.55-.26-4.66-6.07-5.42-10.09-2.87-15.34-.69-30.51,1.49-45.72,0.77-5.35,1.29-11,.52-16.27-0.84-5.78-8-10.43-13.37-10-5.73.53-9.24,4.68-9.37,12.13-0.4,22.14-.55,44.29-0.86,66.43a9.16,9.16,0,0,1-1.07,4.68,141,141,0,0,1-9.67,13.33c-3,3.56-6.77,7.16-11.92,5.61-5.61-1.69-5-7.17-5.57-11.74a13.6,13.6,0,0,1,0-3c1.46-13.39,3-26.77,4.43-40.16,0.86-8.1,2.2-16.23,2.14-24.33-0.08-10.29-6.11-15.49-16.3-15.39a36.19,36.19,0,0,0-23.72,9.22c-12.49,10.74-21.46,23.58-22.35,41-14.84-4.33-28.58-2.57-41.36,5.56-16.2-20.49-35.11-37-58.82-48a97.06,97.06,0,0,0,9.83-40.19c0.7-29.62.45-59.28,0.65-88.92,0.12-18.81.07-37.63,0.62-56.44,0.26-9,.82-8.93,9.64-9.18,9.49-.27,19-0.4,28.47-1,17.9-1.13,35.39-4,51.32-13.06,1.46-.83,4.15-0.43,5.88.3,33.93,14.25,69,18.67,105.18,11.69,33.24-6.42,61.57-21.59,81.53-49.66,5.39-7.59,8.82-16.67,12.48-25.36,1.44-3.42,1.42-7.94-2.73-10.22s-8.47-1.33-12.07,1.68a23.67,23.67,0,0,0-4.65,5.19c-3.6,5.59-7.18,11.22-10.4,17-11.05,19.93-26.84,34.67-47.77,43.68-28.47,12.26-57.92,12.72-87.71,6.26-9.33-2-18.4-5.18-28.57-8.1,2.33-2.53,3.89-3.83,5-5.44,5.4-8.14,11.59-15.92,15.71-24.67,3.92-8.32-.31-15.51-9.11-16.74-17.06-2.39-32.09,2.59-43.93,15.25-6.47,6.93-5.77,14.93.82,21.9,1.75,1.85,3.7,3.52,6.05,5.75-22.54,5.77-44.42,5.92-67.1,2.59,6.56-18.23,14.62-34.78,29.37-47.71-3.6-.53-7.55-1.62-10.39-0.31-6.24,2.88-12.56,6.24-17.72,10.71-9.81,8.52-16.3,19.76-21.85,31.37-2,4.16-4.34,5.7-9,5.88-41.67,1.65-79.78,14.23-113.75,38.49-26.63,19-45.63,43.47-49.9,76.89-1.22,9.56-1.19,19.84,1,29.17,5.83,25.24,30.67,38.73,58.22,33,23.16-4.84,39.55-19.08,52.39-38,7.79-11.49,14.45-23.62,15.92-37.82,0.82-8-3.18-13.48-10.65-15-4.84-1-7,.67-6.63,5.58,3.13,37.11-32,69.11-60.95,73.66-15.43,2.42-27.12-4.74-31-19.86a50.32,50.32,0,0,1-1.53-16.29c2.31-28.22,16-50.41,37.65-67.92,25-20.26,54.37-30.41,85.64-35.82,6.94-1.2,14-1.88,21.14-2.81,0,1.74.06,2.57,0,3.38-1.65,19.4-3.85,38.77-4.83,58.2-1.21,23.78-1.1,47.64-2.16,71.44-0.72,15.87-3.8,31.37-10.72,45.91-1.51,3.16-3,4-6.8,3.56-15.17-1.87-30.4-3.82-45.65-4.22-14-.37-27.44,3.35-38.44,13-9,7.86-9.94,17.55-2.83,27,6.42,8.57,15.27,13.56,25.49,15.45,32.54,6,61.72-1.86,87.31-22.74,2.77-2.26,4.72-2.71,7.85-1.23,12.8,6.07,23.83,14.62,34.07,24.22,5.43,5.1,10.44,10.64,14.66,15-4.09,8.72-8.6,16-11,24-4.6,15.08,2.22,31.17,14.67,37.39,9.55,4.78,18.64,1.62,22.36-8.39a45.87,45.87,0,0,0,2.72-14.11,63.68,63.68,0,0,0-11.11-39.07c7.46-2.76,14.05-6.39,21-7.45,7.69-1.17,16.28-2.21,21.26,7.2a6.38,6.38,0,0,0,9.62,2.09c3.77-2.66,3.55-6.52,1.75-10.3-6.06-12.75-2-27.28,9.8-34.37,3.45-2.08,7.25-4.24,11.22-1.84s2.93,6.69,2.86,10.47a19.86,19.86,0,0,1-.35,3c-1.73,10.17-3.66,20.32-5.17,30.53-1.73,11.71-3.3,23.5-.39,35.24,2.38,9.6,8.25,13.77,18.16,13.61s17.65-4.38,24.12-11.41c3.67-4,7-8.25,10.77-12.64,0.52,0.83.87,1.34,1.17,1.88,5.69,10.14,13.44,12.62,22.62,5.54,6.15-4.75,11-11.41,15.75-17.68,2.61-3.41,4-7.79,5.86-11.74,0.16,6.28-.79,12.34-1,18.43-0.15,5-2.37,8.15-5.89,11.37-14.85,13.61-27.73,28.81-36,47.44-8.34,18.81-9.26,37.59.24,56.38,7.12,14.1,20.23,16.64,31.32,5.58,3.6-3.6,7.13-7.74,9.24-12.3,4.92-10.7,10.61-21.45,13-32.81a672.14,672.14,0,0,0,10.71-68c1.16-10.81,8.16-15.52,14.54-21.69,11.74,10.35,29.19,8.2,34.79-10.37,2-6.52,3.53-13.17,5.33-19.75a13.11,13.11,0,0,1,1-2.29c2.26,7,3.81,14.23,6.92,20.74,4.23,8.88,12.82,10.91,20.92,5.23,4.14-2.91,7.43-7.07,11-10.77a52.76,52.76,0,0,0,3.58-4.58c2.6,2.46,4.45,5,6.91,6.41,10.11,6,25.31,2,31.1-8.21a38.47,38.47,0,0,0,4.51-11.56c2.52-13.23,4.84-26.52,6.59-39.87,0.72-5.51,3.61-7,8.57-7.73-0.17,2.22-.32,4-0.45,5.84-0.92,12-.84,24,2.69,35.67,3.88,12.81,15.48,19,27.81,13.72,6.48-2.78,12-8,17.54-12.7,3.31-2.82,5.71-6.72,8.71-10.37,0.57,1.23.93,2,1.26,2.72,7.08,15.78,20.49,18.42,32.34,5.73,5.39-5.77,9.32-12.91,13.88-19.45,0.88-1.27,1.58-2.66,2.86-4.83,0.58,2.55.92,4,1.23,5.44a46.07,46.07,0,0,0,20.32,29.72c12.6,8.31,25.89,8.06,38.26-.6,10.76-7.53,17.35-18.08,20.22-30.6C3705,2402.53,3697.38,2368.31,3673.78,2337.9Zm-95.67-1.86a14.13,14.13,0,0,1-14.86-9.47c-1.59-5.12.82-11.33,7.07-14.49a63.14,63.14,0,0,1,16.9-5.5c13.32-2.47,31,.47,39.89,6.22C3612.89,2325.73,3597.14,2334.39,3578.11,2336Zm-91.72,79.37c-0.83,0-1.66,0-2.49-.07-6.43-.47-11.06-3.92-11.39-8.46s4.79-11.66,9.94-12.28c2-.24,5.37,1.44,6.25,3.19,1.82,3.61,2.38,7.85,3.46,11.82C3492.48,2414.05,3490.34,2415.56,3486.39,2415.41Zm-303-209.4c-2.18-4.35-.13-7.76,2.93-10.61,5.66-5.28,12.49-8,22.11-8.55,1.4,0.84,5.24,1.87,6.45,4.24,1.08,2.11.16,6.45-1.49,8.51-4.64,5.77-10.08,10.89-15.28,16.2-0.64.65-1.87,1.39-2.57,1.19C3189.72,2215.33,3186,2211.23,3183.37,2206ZM3039.3,2454.9a71,71,0,0,1-43.6,3.6c-6.53-1.44-11.15-5.48-10.93-9.48,0.32-6,5.13-8.33,9.91-9.9,21-6.89,41.63-4.93,61.89,3,0.28,0.64.55,1.27,0.83,1.9C3051.39,2447.74,3045.72,2452.21,3039.3,2454.9Zm119.19,78.42c-0.48,3.62-2.1,7-6.12,7.64a7.24,7.24,0,0,1-8.32-5.7,43.52,43.52,0,0,1-.58-16c0.87-4.87,3.83-9.37,6.32-15.07C3156.11,2513.88,3159.86,2522.88,3158.49,2533.32Zm154.65,79.59a62.44,62.44,0,0,1-3.13,6.8c-3.25,5.89-7.65,6.21-11.5.62-4.2-6.11-4.66-13.13-3.55-20.17,2.8-17.6,9.23-33.61,21.27-47.09,4.29-4.81,8.28-9.87,12.41-14.82C3325.09,2563.63,3322.88,2589.1,3313.14,2612.91Z" transform="translate(-2924.65 -2158.44)" style="fill:#fff"/><path d="M3524.24,2277.17c-0.55-20.81-14.74-40.14-32.73-46.07-11.3-3.73-22.07-.24-27.58,8.94-5.66,9.43-3.53,22.4,4.95,30.12,6.08,5.55,17,6.54,22.05,1.61,1.36-1.32,1.43-4,2.09-6a34,34,0,0,0-6.21-.15c-2.68.41-5.32,2.09-7.91,1.94-5.08-.28-8-3.86-9.25-8.54s-1.12-9.39,2.81-12.94c3.76-3.39,8.2-2.66,12.23-.77,16,7.5,25.77,20.13,25.78,37.85,0,27.18-11.22,49.69-32.64,66.6-4.46,3.51-10.07,5.9-15.51,7.71a25.47,25.47,0,0,1-12.21.68c-8.56-1.6-11.33-8.8-7.86-16.65a191.68,191.68,0,0,0,9.71-26.13c1.41-5.09,1.21-10.89.53-16.22-0.65-5-4.42-6.56-9.39-5.17-6.9,1.92-10.14,7.27-12.24,13.44-3.79,11.16-3.6,22.6-1.84,34.09,0.2,1.25.49,3.35-.08,3.69-3.42,2-6.93,4.58-10.7,5.21-4.21.7-7.23-2.54-8-6.72a39,39,0,0,1-.47-10.89,123.34,123.34,0,0,1,13.21-44.24c2.29-4.38,2.18-8.61-.79-12.16a40.32,40.32,0,0,0-10-8.8c-6.69-4-11.83-2.56-15.3,4.44-2.7,5.45-4.38,11.46-6.09,17.34-1.1,3.79-3.44,5.57-6.76,6.63-0.59-5.88-.72-11.42-1.77-16.77-1.73-8.83-7.41-14.24-15.27-14.89-13-1.06-23.23,4.13-29.86,15.25-9.46,15.89,1.38,35.07,19.85,35.49,4.6,0.1,9.22-.51,14.52-0.84-3.41,13.3-6.6,26.22-10.09,39.06a24.77,24.77,0,0,1-4,8c-1,1.38-3.4,2.85-4.81,2.56s-3.37-2.56-3.61-4.18a34.28,34.28,0,0,1,.16-10.31c0.61-3.76,2.16-7.35,3-11.08s1-8-2.79-10.4a43.35,43.35,0,0,0-12.1-5.51c-5.72-1.45-9.64.48-11.51,6.07s-2.33,11.62-3.33,17.48c-0.27,1.62.38,3.83-.48,4.84-5.62,6.52-11.22,13.13-17.51,19-3.29,3.06-5.8,1.62-7.19-3a25.41,25.41,0,0,1-.93-4.39c-1.76-14.91,0-29.61,3.14-44.14a24,24,0,0,1,4.7-9.6c4.49-5.53,7.61-11.42,4.54-18.29-3.16-7.09-9.71-10.2-17.17-11.25-4.8-.68-8.85,1.09-10.73,5.53-3,7.15-6.81,14.38-7.85,21.9-2,14.31-1.81,28.9-3.42,43.28a153.63,153.63,0,0,1-5.81,26.12c-0.76,2.57-4.29,4.31-6.55,6.43-0.9-2.87-2.59-5.75-2.53-8.59,0.14-6.3,1.44-12.57,1.76-18.88,0.44-8.65-4.95-15.83-12.26-17-6.42-1.07-12.67,3.27-14.73,12.09a97.45,97.45,0,0,0-2.3,23.18c0.11,8.39-4.22,14.1-9.39,19.53-2.38,2.5-4.72,1.19-5.7-1.72a21.84,21.84,0,0,1-1.35-7.33c0.26-9.81.07-19.72,1.42-29.4,2-14.49,5.32-28.79,7.85-43.22,0.72-4.1,2.52-8.76-1.52-12.16-2.71-2.29-10.3-.31-14.24,3.3a21.68,21.68,0,0,0-3.29,3.74c-1.55,2.29-2.88,4.73-4.34,7.18-5.44-7.94-9-9.43-18.58-6.77-12.82,3.55-24,10.1-32.21,20.72-15,19.42-21.89,41.7-21.77,66.1,0,9.4,2,18.5,7,26.77a14.4,14.4,0,0,0,11.73,7.4,31.84,31.84,0,0,0,23.31-7,84.33,84.33,0,0,0,23.19-27.43c2.05,5,3.53,9.78,5.83,14.09,3.12,5.84,8,7.38,13.93,4.44a40.06,40.06,0,0,0,9.75-6.82c4.67-4.45,8.86-9.41,13.38-14.29,1.08,1,2.13,2,3.24,3,12.17,10.69,28,7.25,34.12-7.61,2.46-6,4.18-12.28,6.29-18.42,0.54-1.55,1.27-3,2.38-5.67,1.15,3.76,1.87,6.13,2.59,8.51,7.05,23,19.53,25.81,36,8.12,3.35-3.61,6.39-7.49,9.8-11.51,1,1.23,1.66,2.14,2.38,3,9.81,11.76,26.94,11,35.38-1.69a46,46,0,0,0,6.07-12c4-13.55,7.75-27.18,10.94-40.94,1.13-4.89,3.48-6.89,8.33-7.67-0.2,1.37-.42,2.32-0.46,3.28-0.49,11.11-2.07,22.31-1.15,33.3,1.5,18,16.45,26,32.94,18.4,4.15-1.91,7.87-4.77,11.79-7.2,13.08,14.77,26.58,17.14,44.21,7.26a69.93,69.93,0,0,0,13.72-9.9c15.15-14.27,25.24-31.82,30.76-51.74A81.67,81.67,0,0,0,3524.24,2277.17Zm-337.29,57c-2.46,21.29-7.92,41.77-18.52,60.61a26,26,0,0,1-4,5.1c-6,6.21-11.33,5-13.8-3.38-1.11-3.78-1.24-7.84-1.67-10.79,1.38-16.63,4-32,12.82-45.14,3.56-5.3,8.93-9.85,14.38-13.32C3182.46,2323.23,3187.8,2326.76,3187,2334.14Zm180.27-32.46a53.81,53.81,0,0,1-7.63-1.88c-4.1-1.63-7.14-4.41-6.71-9.32,0.38-4.42,4.74-9.24,8.73-9.74,5-.62,8.29,1.86,10.16,6.23a26.67,26.67,0,0,1,1.94,7.12C3374.51,2300.46,3373.67,2301.3,3367.22,2301.68Zm75.43-1.2c2,12.89-3.72,23.52-7.14,35.28C3431.33,2328,3435.79,2305.78,3442.65,2300.48Z" transform="translate(-2924.65 -2158.44)" style="fill:#fff"/></svg>