<svg id="Слой_1" data-name="Слой 1" xmlns="http://www.w3.org/2000/svg" width="13.09cm" height="13.68cm" viewBox="0 0 371 387.87"><title>garantiya</title><path d="M1162.74,711l-22-43.11a5.57,5.57,0,0,1,0-5.23l21.91-43a18.58,18.58,0,0,0-8.14-25l-43.21-21.93a5.58,5.58,0,0,1-3-4.28l-7.51-47.78A18.45,18.45,0,0,0,1082.4,505a20.46,20.46,0,0,0-3,.22l-47.83,7.6a5.71,5.71,0,0,1-5-1.63l-34.16-34.31a18.25,18.25,0,0,0-13.18-5.48,18.49,18.49,0,0,0-13.18,5.48l-34.24,34.24a5.86,5.86,0,0,1-4.1,1.72,3.08,3.08,0,0,1-1-.13L879,505.14a19.4,19.4,0,0,0-3-.22,18.45,18.45,0,0,0-18.36,15.68l-7.52,47.85a5.84,5.84,0,0,1-3,4.21L804,594.59a18.37,18.37,0,0,0-9.25,10.81,18.59,18.59,0,0,0,1.11,14.22l22,43.11a5.59,5.59,0,0,1,0,5.23l-22,43.1a18.59,18.59,0,0,0,8.13,25L847.16,758a5.65,5.65,0,0,1,3,4.28l7.51,47.78a18.45,18.45,0,0,0,18.36,15.69,19.46,19.46,0,0,0,3-.22l47.83-7.6a5.62,5.62,0,0,1,5,1.62L966.1,853.8a18.3,18.3,0,0,0,13.18,5.47,18.52,18.52,0,0,0,13.18-5.47l34.24-34.25a5.69,5.69,0,0,1,5-1.61l47.82,7.59a19,19,0,0,0,3,.22,18.44,18.44,0,0,0,18.36-15.69l7.52-47.84a5.86,5.86,0,0,1,3-4.21l43.22-21.93a18.36,18.36,0,0,0,9.26-10.81A18.64,18.64,0,0,0,1162.74,711Zm-11.23,10.35a5.47,5.47,0,0,1-3,3.38l-43.15,21.89a18.4,18.4,0,0,0-9.92,13.69L1088,808.21a5.77,5.77,0,0,1-6.61,4.77l-47.83-7.6a18.81,18.81,0,0,0-3-.22,18.52,18.52,0,0,0-13.18,5.48l-34,34.23a5.82,5.82,0,0,1-8.13,0L941,810.64a18.73,18.73,0,0,0-13.18-5.48,20.44,20.44,0,0,0-3,.22L877,813a5.76,5.76,0,0,1-6.6-4.79l-7.52-47.82a18.76,18.76,0,0,0-9.92-13.7l-43.2-21.92a5.59,5.59,0,0,1-2.89-3.31,6.17,6.17,0,0,1,.29-4.41l22-43.18a18.56,18.56,0,0,0,0-16.95l-22-43.12a5.79,5.79,0,0,1-.34-4.42,5.47,5.47,0,0,1,3-3.39L853,584.08a18.4,18.4,0,0,0,9.92-13.69l7.52-47.85a5.76,5.76,0,0,1,6.62-4.76l47.82,7.59a18.81,18.81,0,0,0,3,.22A18.52,18.52,0,0,0,941,520.12L975.18,486a5.85,5.85,0,0,1,8.12,0l34.24,34.23a18.28,18.28,0,0,0,13.18,5.49,19.4,19.4,0,0,0,3-.23l47.83-7.6a5.79,5.79,0,0,1,6.6,4.74l7.52,47.87a18.76,18.76,0,0,0,9.92,13.7l43.2,21.92a5.59,5.59,0,0,1,2.89,3.31,5.73,5.73,0,0,1-.29,4.41l-22,43.17a18.29,18.29,0,0,0-.16,16.89l22,43.12A5.78,5.78,0,0,1,1151.51,721.4Z" transform="translate(-793.77 -471.4)" style="fill:#fff"/><path d="M1041.84,619.16h-36.78v-26c0-12.46-3.72-21.5-11.06-26.88-11.35-8.37-26.28-4-28-3.46a6.38,6.38,0,0,0-4.47,6.09v31.28c0,22.22-25.4,30.62-28.29,31.5a8.26,8.26,0,0,0-1.42.57l-0.81.4-0.74-.53a14.39,14.39,0,0,0-8.48-2.83H899.2a14.12,14.12,0,0,0-14.1,14.1v78.15a14.12,14.12,0,0,0,14.1,14.11h22.64a14.31,14.31,0,0,0,9.2-3.42l1-.79,1,0.79a26.71,26.71,0,0,0,17.12,6.21h76.64c17.75,0,29.58-9.73,31.63-26l10.33-65.49a5.06,5.06,0,0,0,.06-1A26.89,26.89,0,0,0,1041.84,619.16ZM923.18,723H897.94V642.23h25.24V723Zm122.55-12.11c-0.49,3.74-2,14.9-18.93,14.9H950.16A14.16,14.16,0,0,1,936,711.66V644.39l1.06-.33c6.24-1.9,37.34-12.93,37.34-43.77V574.23l1.43-.07c3.09-.16,7.44.16,10.58,2.54,3.84,2.86,5.71,8.25,5.71,16.48v32.39a6.35,6.35,0,0,0,6.42,6.43h43.2a14,14,0,0,1,14.06,13.52v0.14Z" transform="translate(-793.77 -471.4)" style="fill:#f5d211"/></svg>