<svg id="Слой_1" data-name="Слой 1" xmlns="http://www.w3.org/2000/svg" width="2230.22" height="394.04" viewBox="0 0 2230.22 394.04"><title>logo</title><path d="M432,323.23c-0.33-33.65,27.44-49.79,28.68-50.59-15.61-22.84-39.92-26-48.58-26.33-20.69-2.1-40.37,12.18-50.88,12.18s-26.68-11.87-43.84-11.56c-22.55.33-43.35,13.11-55,33.31-23.43,40.66-6,100.89,16.84,133.87,11.16,16.14,24.46,34.27,41.94,33.62,16.82-.67,23.19-10.89,43.53-10.89s26.06,10.89,43.86,10.55c18.1-.34,29.58-16.45,40.66-32.64A146.51,146.51,0,0,0,467.61,377c-0.4-.18-35.3-13.55-35.65-53.75h0ZM398.5,224.48c9.27-11.25,15.53-26.86,13.83-42.43-13.36.54-29.55,8.9-39.13,20.12-8.6,10-16.13,25.85-14.11,41.11,14.91,1.16,30.13-7.58,39.41-18.8h0Zm0,0" transform="translate(-54.77 -129.52)" style="fill:#b9b9b9"/><path d="M592.82,394.63H557V253h35.8v141.6Z" transform="translate(-54.77 -129.52)" style="fill:#b9b9b9"/><path d="M615.21,253h56.6c34.6,0,51.8,25,51.8,50,0,25.2-17.4,50.2-51.6,50.2H651v41.4h-35.8V253Zm56.6,68.4c21.6,0.2,21.6-35.2,0-35H651v35h20.8Z" transform="translate(-54.77 -129.52)" style="fill:#b9b9b9"/><path d="M774.81,394.63h-36V253h36v53.6h40.8V253h36v141.6h-36v-53.4h-40.8v53.4Z" transform="translate(-54.77 -129.52)" style="fill:#b9b9b9"/><path d="M870.61,299.63c0-32.6,29.2-48.6,58.6-48.6s58.8,16.2,58.8,48.6V348c0,32.4-29.2,48.6-58.6,48.6s-58.8-16.2-58.8-48.6v-48.4Zm35.8,48.4c0,10.4,11.6,15.4,23,15.4s22.8-5.2,22.8-15.4v-48.4c0-11-11.8-16-23.4-16-11.2,0-22.4,5.6-22.4,16V348Z" transform="translate(-54.77 -129.52)" style="fill:#b9b9b9"/><path d="M1007,253h34l34.2,60.4,12,28.4,1-.2c-0.2,0-3.8-24.4-4-24.4V253h35.6v141.6h-36.2l-32-55.8-12.4-28.4-1,.2,4.6,27.4v56.6H1007V253Z" transform="translate(-54.77 -129.52)" style="fill:#b9b9b9"/><path d="M1178.41,308.63h57.4v31h-57.4v21.2h62.4v33.8h-98.6V253h98.6v33.6h-62.4v22Z" transform="translate(-54.77 -129.52)" style="fill:#b9b9b9"/><path d="M1332.41,308.63h57.4v31h-57.4v21.2h62.4v33.8h-98.6V253h98.6v33.6h-62.4v22Z" transform="translate(-54.77 -129.52)" style="fill:#b9b9b9"/><path d="M1489.41,253H1531l-39.6,71,39.6,70.6h-41.6l-24.8-48.2-24.2,48.2h-41.8l39.8-70.6-39.8-71h41.8l24.2,48.4Z" transform="translate(-54.77 -129.52)" style="fill:#b9b9b9"/><path d="M1541.61,253h56.6c34.6,0,51.8,25,51.8,50,0,25.2-17.4,50.2-51.6,50.2h-21v41.4h-35.8V253Zm56.6,68.4c21.6,0.2,21.6-35.2,0-35h-20.8v35h20.8Z" transform="translate(-54.77 -129.52)" style="fill:#b9b9b9"/><path d="M1707.81,349.63h-6.4v45h-36.2V253h56.6c29.2,0,51.8,13.4,52.6,46.6,0,26.2-10.6,41-27.8,46.4l38.6,48.6h-44.6Zm14.6-30.8c22.6,0,22.6-32.4,0-32.4h-21v32.4h21Z" transform="translate(-54.77 -129.52)" style="fill:#b9b9b9"/><path d="M1829.81,308.63h57.4v31h-57.4v21.2h62.4v33.8h-98.6V253h98.6v33.6h-62.4v22Z" transform="translate(-54.77 -129.52)" style="fill:#b9b9b9"/><path d="M1927,349.83c14.2,17.2,45.4,18,46.4,2.8,0.4-8-12.6-12.6-24.2-14.2-22.8-3.6-43.6-18-43.6-45,0-27.8,25.2-42.4,51.2-42.4,17.2,0,33.8,4.8,48.4,22.6l-23.4,18c-14.8-15.8-40.2-15.2-40.8,1.2,0.4,6.8,7.8,10.8,18.8,13.2,25.2,4.6,50.4,13.4,48.8,48.2-1.2,27.4-30,42.4-56,42.4-17,0-35-8.6-48.2-25.6Z" transform="translate(-54.77 -129.52)" style="fill:#b9b9b9"/><path d="M2039.81,349.83c14.2,17.2,45.4,18,46.4,2.8,0.4-8-12.6-12.6-24.2-14.2-22.8-3.6-43.6-18-43.6-45,0-27.8,25.2-42.4,51.2-42.4,17.2,0,33.8,4.8,48.4,22.6l-23.4,18c-14.8-15.8-40.2-15.2-40.8,1.2,0.4,6.8,7.8,10.8,18.8,13.2,25.2,4.6,50.4,13.4,48.8,48.2-1.2,27.4-30,42.4-56,42.4-17,0-35-8.6-48.2-25.6Z" transform="translate(-54.77 -129.52)" style="fill:#b9b9b9"/><path d="M2201,523.56H138.77a84.09,84.09,0,0,1-84-84v-226a84.09,84.09,0,0,1,84-84H2201a84.1,84.1,0,0,1,84,84v226A84.1,84.1,0,0,1,2201,523.56Zm-2062.22-384a74.08,74.08,0,0,0-74,74v226a74.08,74.08,0,0,0,74,74H2201a74.08,74.08,0,0,0,74-74v-226a74.08,74.08,0,0,0-74-74H138.77Z" transform="translate(-54.77 -129.52)" style="fill:#b9b9b9"/></svg>