<svg id="Слой_1" data-name="Слой 1" xmlns="http://www.w3.org/2000/svg" width="381.24" height="313" viewBox="0 0 381.24 313"><title>magnit</title><polygon points="58.54 235.33 122.54 78.67 181.87 78.67 185.21 150 215.88 78.67 277.87 78.67 287.87 235.33 225.21 235.33 225.21 150 195.21 235.33 141.21 235.33 139.06 151.34 109.2 235.33 58.54 235.33" style="fill:#fff"/><path d="M4653,2222.26c-15.86-19.9-40.12-30.86-68.32-30.86h-20.33l-7.89,24h28.22c20.74,0,38.34,7.75,49.55,21.82s14.82,33,10.18,53.17l-25.15,109.66c-10,43.55-56.19,80.35-100.88,80.35h-74l-7.89,24h81.87c56,0,111.75-44.41,124.27-99l25.15-109.66C4674.08,2268.27,4668.82,2242.17,4653,2222.26Zm-327.66,236.32c-11.21-14.07-14.83-33-10.19-53.17l25.16-109.66c10-43.55,56.19-80.35,100.87-80.35h76l9.19-24h-85.14c-56,0-111.74,44.41-124.26,99l-25.16,109.66c-6.31,27.48-1,53.58,14.81,73.49s40.11,30.86,68.31,30.86h22l9.19-24h-31.21C4354.11,2480.4,4336.52,2472.65,4325.31,2458.58Z" transform="translate(-4289.13 -2191.4)" style="fill:#fff"/></svg>