<svg id="Слой_1" data-name="Слой 1" xmlns="http://www.w3.org/2000/svg" width="11.43cm" height="12.31cm" viewBox="0 0 323.88 349"><title>mastera</title><path d="M2073.83,761c-37.37-30.68-77.93-52-89.47-57.82l-0.82-.41V646.52l0.52-.45a35.13,35.13,0,0,0,12.35-26.78v-64a64.09,64.09,0,0,0-64-64h-13.76a64.09,64.09,0,0,0-64,64v64A35.14,35.14,0,0,0,1867,646.07l0.53,0.45v56.26l-0.83.41c-11.54,5.81-52.08,27.13-89.48,57.82a37.08,37.08,0,0,0-13.62,28.93v43.83a6.42,6.42,0,1,0,12.84,0V789.94a24.48,24.48,0,0,1,9-19c37.42-30.75,78.2-51.88,89.81-57.63a9.29,9.29,0,0,0,5.17-8.34V643.29a6.48,6.48,0,0,0-2.86-5.31,22.5,22.5,0,0,1-10-18.69v-64a51.24,51.24,0,0,1,51.18-51.18h13.76a51.23,51.23,0,0,1,51.18,51.18v64a22.49,22.49,0,0,1-10,18.69,6.23,6.23,0,0,0-2.85,5.31V705a9.27,9.27,0,0,0,5.17,8.34c4.91,2.39,49.26,24.31,89.8,57.63a24.47,24.47,0,0,1,8.94,19v43.83a6.36,6.36,0,0,0,6.43,6.43,6.43,6.43,0,0,0,6.41-6.43V789.94A37.49,37.49,0,0,0,2073.83,761Z" transform="translate(-1763.57 -491.27)" style="fill:#fff"/><path d="M1981.82,756.6a6.48,6.48,0,0,0-9.09,0l-68.18,68.17-26.26-26.25a6.42,6.42,0,1,0-9.08,9.07l30.8,30.8a6.42,6.42,0,0,0,9.08,0l72.72-72.71A6.36,6.36,0,0,0,1981.82,756.6Z" transform="translate(-1763.57 -491.27)" style="fill:#f5d211"/></svg>