<svg id="Слой_1" data-name="Слой 1" xmlns="http://www.w3.org/2000/svg" width="18.66cm" height="14.05cm" viewBox="0 0 528.95 398.23"><title>nalbeznal</title><path d="M2489.6,652a57.47,57.47,0,0,1-.39,6.69l-16.88-2a40.88,40.88,0,0,0,.27-4.7c0-1,0-2-.12-3,0-.5-0.08-1-0.13-1.5s-0.13-1-.21-1.5h1.52a41,41,0,0,0-81.5,5c0.5-.32,1-0.64,1.54-0.93,0,0.59,0,1.18,0,1.77V652c0,0.54,0,1.07,0,1.6a39.3,39.3,0,0,0,3.09,13.82L2381.15,674h0c-0.38-.9-0.74-1.81-1.08-2.72s-0.62-1.77-.9-2.67h0a24.92,24.92,0,0,1,.83-2.53A55,55,0,1,1,2487.78,646h1.51c0.05,0.5.09,1,.14,1.5s0.07,1,.1,1.5C2489.57,650,2489.6,651,2489.6,652Z" transform="translate(-2205.05 -482.77)" style="fill:#f5d211"/><path d="M2491,649q0-.75-0.09-1.5c0-.5-0.08-1-0.14-1.5h-3c0,0.49.1,1,.14,1.5s0.07,1,.1,1.5c0,1,.08,2,0.08,3,0,1.67-.07,3.35-0.22,5L2474,655.36c0.09-1.12.13-2.25,0.13-3.38s0-2-.11-3c0-.5-0.08-1-0.13-1.5s-0.12-1-.2-1.5h-3c0.08,0.5.15,1,.2,1.5s0.12,1,.15,1.5c0.08,1,.12,2,0.12,3a40.34,40.34,0,0,1-.26,4.53l-0.18,1.49,19.86,2.34,0.18-1.49a58.37,58.37,0,0,0,.4-6.87C2491.1,651,2491.07,650,2491,649Zm-92.87,17.82a37.72,37.72,0,0,1-3-14.15c0-.23,0-0.46,0-0.69s0-.68,0-1q0-.87.09-1.74c-0.53.26-1,.54-1.55,0.83s-1,.61-1.54.93c0,0.33,0,.67,0,1s0,0.56,0,.83c0,0.6,0,1.19.08,1.78a40.37,40.37,0,0,0,2.59,12l-12.89,5.48c-0.11-.29-0.23-0.58-0.33-0.87-0.32-.85-0.62-1.71-0.9-2.57s-0.5-1.67-.73-2.52a24.92,24.92,0,0,0-.83,2.53h0c-0.26.92-.48,1.84-0.65,2.79,0.35,1,.72,1.93,1.12,2.89,0,0.1.09,0.2,0.13,0.3l0.58,1.38,0.71-.3,16.77-7.12,0.93-.4-0.21-.49Z" transform="translate(-2205.05 -482.77)" style="fill:#fff"/><path d="M2706,649h-52.46L2615.2,499.63a22.46,22.46,0,0,0-27.31-16.15l-366,94a22.47,22.47,0,0,0-16.15,27.31l44.92,175a22.4,22.4,0,0,0,27.3,16.14l103-26.45V853a28,28,0,0,0,28,28h297a28,28,0,0,0,28-28V677A28,28,0,0,0,2706,649Zm-313.76,5.59a28,28,0,0,0-10.63,16.62c-0.2.93-.35,1.87-0.46,2.83-0.05.56-.1,1.12-0.11,1.68s0,0.85,0,1.28v47.41l-79.86,20.5a6.39,6.39,0,0,1-4.75-.53,3.45,3.45,0,0,1-1.65-2.07l-32.34-126a3.45,3.45,0,0,1,.61-2.83,6.41,6.41,0,0,1,3.75-2.53l298-76.5a6.34,6.34,0,0,1,4.75.53,3.4,3.4,0,0,1,1.65,2.06L2598.61,644l13.56-3.48-27.44-106.91a17.38,17.38,0,0,0-8.7-10.94,20.25,20.25,0,0,0-14.76-1.74l-298,76.51a20.35,20.35,0,0,0-11.85,8.21,17.62,17.62,0,0,0-2.6,14.19l32.34,126c2,7.85,9.51,13.33,18.23,13.33a21.12,21.12,0,0,0,5.23-.66L2381,738.86v16.08l-106.5,27.35a8.4,8.4,0,0,1-10.26-6.07l-44.91-175a8.43,8.43,0,0,1,6.06-10.26l366-93.95a8.43,8.43,0,0,1,10.25,6.06L2639.09,649H2409a27.74,27.74,0,0,0-13.84,3.67c-0.5.28-1,.59-1.48,0.91S2392.71,654.23,2392.24,654.59ZM2720,853a14,14,0,0,1-14,14H2409a14,14,0,0,1-14-14V837.5h325V853Zm0-61.5H2395V677a13.93,13.93,0,0,1,2.81-8.4c0.23-.31.47-0.61,0.72-0.89A14,14,0,0,1,2409,663h297a14,14,0,0,1,14,14V791.5Z" transform="translate(-2205.05 -482.77)" style="fill:#fff"/><path d="M2599.67,702a7,7,0,0,1-7,7H2422a7,7,0,0,1,0-14h170.67A7,7,0,0,1,2599.67,702Z" transform="translate(-2205.05 -482.77)" style="fill:#f5d211"/><path d="M2479.67,742.67a7,7,0,0,1-7,7H2422a7,7,0,0,1,0-14h50.67A7,7,0,0,1,2479.67,742.67Z" transform="translate(-2205.05 -482.77)" style="fill:#f5d211"/></svg>