<svg id="Слой_1" data-name="Слой 1" xmlns="http://www.w3.org/2000/svg" width="12.47cm" height="12.43cm" viewBox="0 0 353.41 352.38"><title>novye detali</title><path d="M1472.91,589.81H1363.66a25.6,25.6,0,0,0-25.57,25.56V724.63a25.6,25.6,0,0,0,25.57,25.56h109.25a25.6,25.6,0,0,0,25.57-25.56V615.37A25.6,25.6,0,0,0,1472.91,589.81Zm11.57,134.82a11.58,11.58,0,0,1-11.57,11.56H1363.66a11.58,11.58,0,0,1-11.57-11.56V615.37a11.58,11.58,0,0,1,11.57-11.56h109.25a11.58,11.58,0,0,1,11.57,11.56V724.63Z" transform="translate(-1241.07 -493.81)" style="fill:#f5d211"/><path d="M1587.48,617a7,7,0,0,0,0-14h-31.19V577h31.19a7,7,0,0,0,0-14h-31.19v-5.43A25.6,25.6,0,0,0,1530.72,532h-5.43V500.81a7,7,0,1,0-14,0V532h-26V500.81a7,7,0,1,0-14,0V532h-26V500.81a7,7,0,1,0-14,0V532h-26V500.81a7,7,0,1,0-14,0V532h-26V500.81a7,7,0,1,0-14,0V532h-26V500.81a7,7,0,1,0-14,0V532h-5.43a25.6,25.6,0,0,0-25.57,25.57V563h-32.22a7,7,0,0,0,0,14h32.22v26h-32.22a7,7,0,0,0,0,14h32.22v26h-32.22a7,7,0,0,0,0,14h32.22v26h-32.22a7,7,0,0,0,0,14h32.22v26h-32.22a7,7,0,0,0,0,14h32.22v26h-32.22a7,7,0,0,0,0,14h32.22v5.43A25.6,25.6,0,0,0,1305.86,808h5.43v31.19a7,7,0,0,0,14,0V808h26v31.19a7,7,0,0,0,14,0V808h26v31.19a7,7,0,0,0,14,0V808h26v31.19a7,7,0,0,0,14,0V808h26v31.19a7,7,0,0,0,14,0V808h26v31.19a7,7,0,0,0,14,0V808h5.43a25.6,25.6,0,0,0,25.57-25.57V777h31.19a7,7,0,0,0,0-14h-31.19V737h31.19a7,7,0,0,0,0-14h-31.19V697h31.19a7,7,0,0,0,0-14h-31.19V657h31.19a7,7,0,0,0,0-14h-31.19V617h31.19Zm-45.19,165.43A11.58,11.58,0,0,1,1530.72,794H1305.86a11.58,11.58,0,0,1-11.57-11.57V557.57A11.58,11.58,0,0,1,1305.86,546h224.86a11.58,11.58,0,0,1,11.57,11.57V782.43Z" transform="translate(-1241.07 -493.81)" style="fill:#fff"/></svg>