<svg id="Слой_1" data-name="Слой 1" xmlns="http://www.w3.org/2000/svg" width="17.49cm" height="14.35cm" viewBox="0 0 495.73 406.73"><title>oborudovanie</title><path d="M3104.21,566.5L3080.57,646h1.56l-0.44,1.5-0.45,1.5-2.8,9.42a8.51,8.51,0,0,1-10.57,5.73,8.32,8.32,0,0,1-2.4-1.15,8.48,8.48,0,0,1-3.33-9.42l1.36-4.58,0.45-1.5,0.44-1.5H3066l24.83-83.5a7,7,0,0,1,8.71-4.71A7,7,0,0,1,3104.21,566.5Z" transform="translate(-2927 -482.77)" style="fill:#f5d211"/><path d="M3080.57,646l-0.45,1.5-0.44,1.5-2.68,9a7.05,7.05,0,0,1-6.71,5,7.22,7.22,0,0,1-2-.29,7,7,0,0,1-4.71-8.71l1.49-5,0.44-1.5L3066,646h-3.13l-0.9,3-1.23,4.15a10,10,0,0,0,2.46,9.85,9.4,9.4,0,0,0,1.87,1.5,9.94,9.94,0,0,0,2.41,1.09,10.23,10.23,0,0,0,2.85.41,10,10,0,0,0,5.23-1.5,9.73,9.73,0,0,0,1.89-1.5,10,10,0,0,0,2.46-4.15l2.93-9.85,0.45-1.5,0.44-1.5h-3.12Z" transform="translate(-2927 -482.77)" style="fill:#fff"/><path d="M3415.73,830.81H3392.9v-9.44h-81v9.44H3213V783.24h81.17v9.43h81v-9.43h18.06a7,7,0,0,0,0-14h-18.06v-9.43h-81v9.43H3213V509.39a26.65,26.65,0,0,0-26.61-26.62H2953.61A26.65,26.65,0,0,0,2927,509.39v353.5a26.64,26.64,0,0,0,26.61,26.61h232.78A26.64,26.64,0,0,0,3213,862.89V844.81h98.9v9.43h81v-9.43h22.83A7,7,0,1,0,3415.73,830.81ZM3199,862.89a12.63,12.63,0,0,1-12.61,12.61H2953.61A12.63,12.63,0,0,1,2941,862.89V509.39a12.63,12.63,0,0,1,12.61-12.62h232.78A12.63,12.63,0,0,1,3199,509.39v353.5Z" transform="translate(-2927 -482.77)" style="fill:#fff"/><path d="M3153.72,513.67H2986.28a26.64,26.64,0,0,0-26.61,26.61v96.11A26.64,26.64,0,0,0,2986.28,663h167.44a26.64,26.64,0,0,0,26.61-26.61V540.28A26.64,26.64,0,0,0,3153.72,513.67Zm12.61,122.72A12.63,12.63,0,0,1,3153.72,649H2986.28a12.63,12.63,0,0,1-12.61-12.61V540.28a12.62,12.62,0,0,1,12.61-12.61h167.44a12.62,12.62,0,0,1,12.61,12.61v96.11Z" transform="translate(-2927 -482.77)" style="fill:#fff"/><path d="M3070,724.22a66.42,66.42,0,1,0,66.41,66.41A66.48,66.48,0,0,0,3070,724.22ZM3070,843a52.42,52.42,0,1,1,52.41-52.42A52.48,52.48,0,0,1,3070,843Z" transform="translate(-2927 -482.77)" style="fill:#f5d211"/><path d="M3096.61,768.89l-41.69,52.22a7,7,0,0,1-10.95-8.73l41.69-52.23A7,7,0,0,1,3096.61,768.89Z" transform="translate(-2927 -482.77)" style="fill:#f5d211"/><path d="M3015.28,695.85a11.57,11.57,0,1,1-11.56-11.57A11.58,11.58,0,0,1,3015.28,695.85Z" transform="translate(-2927 -482.77)" style="fill:#fff"/><path d="M3145.28,695.85a11.57,11.57,0,1,1-11.56-11.57A11.58,11.58,0,0,1,3145.28,695.85Z" transform="translate(-2927 -482.77)" style="fill:#fff"/></svg>