<svg id="Слой_1" data-name="Слой 1" xmlns="http://www.w3.org/2000/svg" width="739.87" height="184.46" viewBox="0 0 739.87 184.46"><title>pyos</title><path d="M1986.69,2363.44a25.84,25.84,0,0,1,12.17,7.79c1.42,1.53,2.41,3.16,2,5.34a1.19,1.19,0,0,0,0,.68c2.37,4.2-.29,7.59-1.78,11.16a9,9,0,0,0-.58,5.76,124.51,124.51,0,0,1,2.83,15.75c0.36,3.9-.37,7.9-0.66,11.85-0.08,1.13-.33,2.24-0.55,3.66l-10.38-4.95c-2.27,1.44-4.39,2.92-6.63,4.17a12.7,12.7,0,0,1-13.15-1.26,4.61,4.61,0,0,1-1.13-1.93c-1.32-3.56-2.59-7.15-3.62-10-2.8-.93-5.1-1.6-7.33-2.46-3-1.16-6-2.38-8.86-3.74-3.31-1.55-6.54-3.29-10.32-5.21-1.15,2.32-2.33,4.66-3.45,7a0.91,0.91,0,0,0,.12.85,40.08,40.08,0,0,0,4,2.37c1,0.52,2.31.63,3.31,1.21,4.16,2.43,8.32,4.86,12.33,7.51a12.19,12.19,0,0,1,3.65,3.91,13.14,13.14,0,0,0,5.53,5.57c10.05,5,20,10.11,30.09,15.12,4,2,4,1.91,7.17-1.67,0.28,2.44.59,4.56,0.75,6.7,0.22,3,.28,6,0.52,8.93a8.8,8.8,0,0,0,.77,3.05q8.58,17.89,17.27,35.72a18.45,18.45,0,0,0,2.53,3.5c3,3.59,6,7.16,9,10.69,1.58,1.83,1.16,3.35-.29,5-3.82,4.43-15,2.51-16-3.18a50.13,50.13,0,0,0-1.49-5.05c-0.38-1.26-.41-2.78-2.46-2.61a2.26,2.26,0,0,1-1.22-1.45c-2-6.76-6.07-12.33-10.5-17.6-5.16-6.15-10.64-12-16-18-0.35-.4-0.69-0.8-1.11-1.3-7.88,6.3-16.61,3.67-25.78,2.6,0.81,4.89,1.45,9.47,2.39,14a46.51,46.51,0,0,0,2.22,6,18.73,18.73,0,0,1,1.24,4.14,13.41,13.41,0,0,0,2.93,7.08,15.48,15.48,0,0,1,3,7.81,66.28,66.28,0,0,0,1.65,7.84c0.86,3.21.64,4.74-1.24,6.2-2.76,2.15-5.78,2.56-8.26.75-4.75-3.46-8.33-8.18-7.71-14.07s-2-10.35-4-15.13c-3.76-8.86-7.89-17.57-12-26.28a12.24,12.24,0,0,1,.24-11.43c2.35-4.68.11-12.37-4.24-15.27a2.8,2.8,0,0,0-3.76.23,4.24,4.24,0,0,0-1.05,1.2c-2.37,4.93-6.56,8.19-10.6,11.57a3,3,0,0,0-1.09,3.79c0.67,1.79,1.24,3.62,1.8,5.44,0.82,2.67.46,3.4-2,4.46-5.13,2.17-8.77-.27-8.46-5.86a38.89,38.89,0,0,1,1.29-7.43,22,22,0,0,0,0-11.29,40,40,0,0,1-.67-18.18,14.18,14.18,0,0,1,2.55-5.57,22.29,22.29,0,0,0,3.79-9.2c1.33-6,3.45-11.72,8.6-15.77,3.13-2.46,6.38-3.72,10.41-2.75,2.52,0.61,5.15.73,7.69,1.27s4.71-.58,7-1.58c-1.85-1.51-3.59-2.87-5.25-4.31-2.64-2.3-3.61-5.39-4-8.75a2,2,0,0,1,1.91-2.54c6.53-1,12.94-1,18.94,2.34a15.56,15.56,0,0,0,8.47,1.87c4.74-.13,9.51,1,14.27,1.67,0.72,0.1,1.43.31,2.86,0.62-0.69-2.07-1.17-3.61-1.73-5.12-1.65-4.51-2-8.93.81-13.17h1.38Z" transform="translate(-1846.84 -2339.37)" style="fill:#fff"/><path d="M1921.09,2390.52c-1.38,3-4.08,3-6,4.19-7.44,4.8-14.84.54-22.24,0.1a32.63,32.63,0,0,1-3.58-.78c-2.24-.4-3.82-1.11-3.54-4,0.08-.8-1.35-2.12-2.36-2.56a28.46,28.46,0,0,0-5.27-1.22c1-2.17-.4-2.94-2-3.51-1.36-.5-2.83-0.71-4.16-1.28a26.61,26.61,0,0,1-2.42-1.71,9.77,9.77,0,0,0-2.83-1.21c-1.69-.34-3.26-0.32-4.51-2.11-0.71-1-2.81-1.38-4.31-1.46-3.65-.2-7.32-0.07-11.07-0.44,3-2.93,7.21-2.19,11.22-3.57l-2.17-.35a62.44,62.44,0,0,1,23.67,1.53c3.55,1,7,2.76,10.59,3.16C1902.4,2376.68,1912.22,2382.53,1921.09,2390.52Z" transform="translate(-1846.84 -2339.37)" style="fill:#fff"/><path d="M2078.18,2390.38l19.8-27.76h22.21l-22.63,30.27,25.87,43.05h-22.73l-15-26.92-7.54,9.85v17.07h-20.32v-73.32h20.32v27.76Z" transform="translate(-1846.84 -2339.37)" style="fill:#fff"/><path d="M2159.26,2412.27h-7.12v23.67h-20.32v-73.32h27.44c18.23,0,30.48,8.07,30.48,24.82S2177.48,2412.27,2159.26,2412.27Zm-0.63-33.94h-6.49v18.23h6.49c6.81,0,10.58-2.62,10.58-9.11S2165.44,2378.33,2158.63,2378.33Z" transform="translate(-1846.84 -2339.37)" style="fill:#fff"/><path d="M2239.39,2362.62l24.2,73.32H2242l-3.56-12.15H2214l-3.46,12.15H2189l24.2-73.32h26.19Zm-20.53,44.52h14.87l-7.44-25.77Z" transform="translate(-1846.84 -2339.37)" style="fill:#fff"/><path d="M2305.58,2361.36c13.83,0,26.29,6.39,32.79,17.91l-17.07,7.86c-3-5.66-8.07-9-14.56-9-9.22,0-16.76,7.12-16.76,21.16s7.54,21.16,16.76,21.16c6.49,0,11.52-3.35,14.56-9l17.07,7.86c-6.5,11.52-19,17.91-32.79,17.91-21.68,0-36.14-14.35-36.14-37.92S2283.9,2361.36,2305.58,2361.36Z" transform="translate(-1846.84 -2339.37)" style="fill:#fff"/><path d="M2348.21,2362.62h20.32v26.71h23.15v-26.71H2412v73.32h-20.32v-30.06h-23.15v30.06h-20.32v-73.32Z" transform="translate(-1846.84 -2339.37)" style="fill:#fff"/><path d="M2455.15,2389.23c16.86,0,27,8.69,27,23.36s-10.16,23.36-27,23.36h-28.28v-73.32h20.32v26.61h8Zm-2.41,16.13h-5.55v14.45h5.55c5.76,0,8.9-2.1,8.9-7.23S2458.51,2405.36,2452.75,2405.36Zm55.93-42.74v73.32h-20.32v-73.32h20.32Z" transform="translate(-1846.84 -2339.37)" style="fill:#fff"/><path d="M2523.55,2362.62h19.8v39.91l23.46-39.91h19.9v73.32h-19.8v-40l-23.46,40h-19.9v-73.32Zm13.83-21.05,11.42-2.2c0.84,4.61,3.14,6.7,6.28,6.7s5.45-2.1,6.28-6.7l11.42,2.2c-1.68,9-7.86,14.87-17.7,14.87S2539.05,2350.58,2537.38,2341.57Z" transform="translate(-1846.84 -2339.37)" style="fill:#fff"/><path d="M2121.34,2522.36H2101v-56.77h-22.83v56.77h-20.32V2449h63.48v73.32Z" transform="translate(-1846.84 -2339.37)" style="fill:#fff"/><path d="M2136.21,2449h50.7V2465h-30.38v11.84h26.71v15.92h-26.71v13.83h31.32v15.82h-51.64V2449Z" transform="translate(-1846.84 -2339.37)" style="fill:#fff"/><path d="M2232.47,2447.78c13.83,0,26.29,6.39,32.79,17.91l-17.07,7.86c-3-5.66-8.07-9-14.56-9-9.22,0-16.76,7.12-16.76,21.16s7.54,21.16,16.76,21.16c6.49,0,11.52-3.35,14.56-9l17.07,7.86c-6.5,11.52-19,17.91-32.79,17.91-21.68,0-36.14-14.35-36.14-37.92S2210.79,2447.78,2232.47,2447.78Z" transform="translate(-1846.84 -2339.37)" style="fill:#fff"/></svg>