<svg id="Слой_1" data-name="Слой 1" xmlns="http://www.w3.org/2000/svg" width="13.14cm" height="14.08cm" viewBox="0 0 372.56 399"><title>quoliti</title><path d="M4917.14,511c0,288.76,179.28,346.68,179.28,346.68S5275.7,799.72,5275.7,511c0,0-75.27-38.32-179.28-38.32S4917.14,511,4917.14,511Z" transform="translate(-4910.14 -465.63)" style="fill:none;stroke:#fff;stroke-linecap:round;stroke-linejoin:round;stroke-width:14px"/><path d="M5146.92,644.59c-0.25-24.68,20.12-36.51,21-37.1-11.44-16.75-29.27-19-35.63-19.31-15.17-1.54-29.61,8.93-37.31,8.93s-19.56-8.71-32.15-8.48c-16.54.25-31.79,9.62-40.31,24.43-17.18,29.82-4.4,74,12.35,98.17,8.18,11.84,17.94,25.13,30.75,24.66,12.34-.49,17-8,31.92-8s19.11,8,32.17,7.74c13.28-.25,21.69-12.06,29.82-23.94A107.44,107.44,0,0,0,5173.07,684c-0.3-.14-25.89-9.94-26.15-39.41h0Zm-24.53-72.41c6.8-8.25,11.39-19.7,10.14-31.12-9.79.4-21.67,6.52-28.7,14.76-6.3,7.3-11.83,19-10.35,30.15,10.94,0.85,22.1-5.56,28.9-13.79h0Zm0,0" transform="translate(-4910.14 -465.63)" style="fill:#f5d211"/></svg>