<svg id="Слой_1" data-name="Слой 1" xmlns="http://www.w3.org/2000/svg" width="289.33" height="286.84" viewBox="0 0 289.33 286.84"><title>rocket</title><path d="M709,1739.36l-86.62-86.62,120.2-120.2c17.84-17.84,42.61-28.22,71.62-30a142.73,142.73,0,0,1,38.75,2.71l2.69,0.65,0.88,2.62c9.2,27.45,6.8,55.88-6.93,82.21a119.63,119.63,0,0,1-23.68,31.7Zm-72.47-86.62L709,1725.22,819,1615.16l0.12-.1a111.11,111.11,0,0,0,21.72-29.26c12-23.24,14.38-47.23,7-71.37-12.3-2.24-64-9.12-98.26,25.18Z" transform="translate(-572.65 -1502.27)" style="fill:#fff"/><path d="M804.12,1508.57" transform="translate(-572.65 -1502.27)" style="fill:none;stroke:#010101;stroke-miterlimit:10;stroke-width:6px"/><path d="M852.66,1573.71a71.28,71.28,0,0,1-44.08-20.58,70.49,70.49,0,0,1-20.36-41.94l9.93-1.18a60.58,60.58,0,0,0,17.5,36,61.27,61.27,0,0,0,37.88,17.69Z" transform="translate(-572.65 -1502.27)" style="fill:#fff"/><path d="M760.45,1632.88a31.58,31.58,0,1,1,22.33-9.25A31.37,31.37,0,0,1,760.45,1632.88Zm0-53.16a21.43,21.43,0,0,0-15.26,6.32h0A21.58,21.58,0,1,0,760.45,1579.72Z" transform="translate(-572.65 -1502.27)" style="fill:#f4d214"/><path d="M683.34,1743.49a5,5,0,0,1-3.54-1.46l-59-59a5,5,0,0,1,1.08-7.89l20.37-11.45a5,5,0,0,1,6,.82l50.28,50.28a5,5,0,0,1,.8,6L687.67,1741a5,5,0,0,1-3.68,2.46A5.1,5.1,0,0,1,683.34,1743.49Zm-50.82-62.89,49.75,49.75,6.46-11.22-44.89-44.89Z" transform="translate(-572.65 -1502.27)" style="fill:#fff"/><path d="M593.91,1773.55a5,5,0,0,1-3.54-8.54l46-46a5,5,0,0,1,7.07,7.07l-46,46A5,5,0,0,1,593.91,1773.55Z" transform="translate(-572.65 -1502.27)" style="fill:#f4d214"/><path d="M609.47,1789.1a5,5,0,0,1-3.54-8.53l1.15-1.15a5,5,0,1,1,7.07,7.07l-1.15,1.15A5,5,0,0,1,609.47,1789.1Z" transform="translate(-572.65 -1502.27)" style="fill:#f4d214"/><path d="M619.81,1778.76a5,5,0,0,1-3.54-8.54l2-2a5,5,0,0,1,7.07,7.07l-2,2A5,5,0,0,1,619.81,1778.76Z" transform="translate(-572.65 -1502.27)" style="fill:#f4d214"/><path d="M630.68,1767.89a5,5,0,0,1-3.54-8.54l24.75-24.75a5,5,0,0,1,7.07,7.07l-24.75,24.75A5,5,0,0,1,630.68,1767.89Z" transform="translate(-572.65 -1502.27)" style="fill:#f4d214"/><path d="M622.46,1712.47a5,5,0,0,1-3.54-8.53l1.15-1.15a5,5,0,0,1,7.07,7.07L626,1711A5,5,0,0,1,622.46,1712.47Z" transform="translate(-572.65 -1502.27)" style="fill:#f4d214"/><path d="M611.27,1723.67a5,5,0,0,1-3.54-8.54l2-2a5,5,0,0,1,7.07,7.07l-2,2A5,5,0,0,1,611.27,1723.67Z" transform="translate(-572.65 -1502.27)" style="fill:#f4d214"/><path d="M577.65,1757.28a5,5,0,0,1-3.54-8.54L598.86,1724a5,5,0,1,1,7.07,7.07l-24.75,24.75A5,5,0,0,1,577.65,1757.28Z" transform="translate(-572.65 -1502.27)" style="fill:#f4d214"/><path d="M629,1652.68a5,5,0,0,1-.66,0l-36.27-4.77a5,5,0,0,1-2.88-8.49l62.54-62.54a5,5,0,0,1,4.19-1.42l39.45,5.19a5,5,0,0,1-1.3,9.91l-37-4.86-53.62,53.62,26.21,3.45A5,5,0,0,1,629,1652.68Z" transform="translate(-572.65 -1502.27)" style="fill:#fff"/><path d="M717.89,1773.08a5,5,0,0,1-5-4.35l-4.77-36.27a5,5,0,0,1,9.91-1.3l3.45,26.21,53.62-53.62-4.86-37a5,5,0,0,1,9.91-1.3l5.19,39.45a5,5,0,0,1-1.42,4.19l-62.54,62.54A5,5,0,0,1,717.89,1773.08Z" transform="translate(-572.65 -1502.27)" style="fill:#fff"/></svg>