<svg id="Слой_1" data-name="Слой 1" xmlns="http://www.w3.org/2000/svg" width="698.24" height="486" viewBox="0 0 698.24 486"><title>sberbank</title><path d="M606.25,1126.74c4.24,2.11,8.48,4.2,12.7,6.34,1.43,0.73,2.81,1.57,4.5,2.52a20.12,20.12,0,0,1-1.71,1.31q-23.65,14.12-47.31,28.21c-8.63,5.15-17.22,10.36-25.85,15.5-9.2,5.48-18.44,10.88-27.64,16.36-8.47,5-16.91,10.16-25.36,15.23-1.08.65-2.18,1.25-3.24,1.93a2.35,2.35,0,0,1-2.82-.06q-9.62-6.07-19.29-12.05l-18.7-11.62c-7-4.35-14-8.7-21-13.11a1.94,1.94,0,0,1-.69-1.59c3.17-4.15,6.43-8.22,9.73-12.39l11.36,6.56q19.45,11.23,38.93,22.42a2.9,2.9,0,0,0,2.43-.1q18-10.27,36-20.68l62.21-35.85q7-4.05,14-8.15a8.24,8.24,0,0,0,1-.77h0.72Z" transform="translate(-199.57 -1126.74)" style="fill:#fff"/><path d="M199.57,1528c0.39-2.78.72-5.58,1.17-8.35,1.24-7.76,3.73-15,8.67-21.28,6-7.6,14.14-11.62,23.49-13.26a85.38,85.38,0,0,1,38.36,2.26c1.74,0.49,2.42,1.17,2.35,3.19-0.22,5.64-.08,11.3-0.08,17.21-1.74,0-3.47.07-5.18-.06a1.85,1.85,0,0,1-1-1.18c-0.55-1.65-1-3.34-1.43-5-1.81-6.32-6.07-9.86-12.47-11a34.13,34.13,0,0,0-14,.26c-7.54,1.8-12.09,6.79-14.64,13.87a59.89,59.89,0,0,0-3.16,19.86,198.56,198.56,0,0,0,.74,20.19c0.65,7.18,2.49,14.1,7.22,19.86,4,4.93,9.44,7.28,15.64,8a49,49,0,0,0,27.65-4.94,2.8,2.8,0,0,1,.69-0.1l3,5.65c-3.81,1.69-7.35,3.62-11.11,4.87a63.84,63.84,0,0,1-37.11,1.48c-14.81-3.91-23.41-13.94-26.83-28.62-0.75-3.2-1-6.52-1.52-9.78a14.91,14.91,0,0,0-.4-1.53V1528Z" transform="translate(-199.57 -1126.74)" style="fill:#fff"/><path d="M664.41,1353.83a147.31,147.31,0,0,1-262.62-101l10.15,5.85,58.91,34c6,3.49,12.11,6.95,18.12,10.5a3.43,3.43,0,0,0,3.94,0q35.25-20.36,70.57-40.58c3-1.76,6.11-3.5,9.17-5.25l96.5-55.69,10.59-6.21C703.12,1239.44,704.36,1303.06,664.41,1353.83Z" transform="translate(-199.57 -1126.74)" style="fill:#fff"/><path d="M897.82,1603.72v9H207v-9H897.82Z" transform="translate(-199.57 -1126.74)" style="fill:#fff"/><path d="M420.67,1189.48c5.05,2.94,9.82,5.72,14.6,8.48q27,15.6,54.08,31.21a2.85,2.85,0,0,0,3.28,0q46.93-27,93.89-54,24.94-14.37,49.79-28.9a2.35,2.35,0,0,1,3.29.31c3.18,2.85,6.49,5.55,9.73,8.34,0.62,0.54,1.14,1.2,1.91,2-2,1.25-3.91,2.41-5.8,3.53q-15.84,9.41-31.69,18.8c-8.39,5-16.8,9.9-25.19,14.87q-21,12.46-42.06,25c-9.63,5.7-19.28,11.37-28.91,17.08q-11.25,6.67-22.47,13.4c-0.88.52-1.8,1-2.63,1.56a2.28,2.28,0,0,1-2.82.12c-4.66-2.88-9.34-5.71-14-8.57l-22.93-14.05c-12.52-7.68-25-15.38-37.57-23-1.46-.89-1.72-1.67-0.95-3.16C416.4,1198.2,418.48,1193.89,420.67,1189.48Z" transform="translate(-199.57 -1126.74)" style="fill:#fff"/><path d="M407.77,1219.13c8.86,5.14,17.33,10.07,25.82,15q28,16.15,56,32.28a2.52,2.52,0,0,0,2.83,0q27.9-16.11,55.83-32.16c11.17-6.4,22.38-12.72,33.57-19.09,2.44-1.39,54.27-31.44,57-33-0.2,1.22-8.53,14.92-11.5,14.21a11,11,0,0,1-1.2-.36l-6.59-2.43c0,0.09,0-.13.11-0.17,3.17-1.09,5.54-3.52,8.5-5s5.93-3.45,8.88-5.19l8.72-5.1q4.44-2.59,8.88-5.18c2.08-1.21,4.21-2.33,6.24-3.61,1-.61,1.53-0.62,2.22.33q4,5.48,8,10.88c0.86,1.15.67,1.83-.57,2.55q-13.1,7.65-26.16,15.39c-10,5.91-20,11.86-30,17.76-5.7,3.36-11.44,6.63-17.14,10-9.43,5.57-18.82,11.21-28.24,16.78q-18.26,10.79-36.54,21.52-15.54,9.18-31.05,18.4c-3.1,1.84-6.18,3.73-9.34,5.44a2.91,2.91,0,0,1-2.41-.12c-4.32-2.49-8.58-5.09-12.85-7.67q-12.5-7.58-25-15.19-23-14-46-28c-1.58-1-2.17-1.87-1.68-3.7C405.46,1228.92,406.56,1224.13,407.77,1219.13Z" transform="translate(-199.57 -1126.74)" style="fill:#fff"/><path d="M794.08,1485.61v2.56a1.12,1.12,0,0,1-.29.25c-4.28,1.44-5.05,2.5-5.05,7.08q0,36.86,0,73.73c0,5.23.48,5.95,5.34,7.88v2.62H763.34v-2.55a0.49,0.49,0,0,1,.18-0.19c4.57-1.59,5.12-2.37,5.12-7.15q0-18.16,0-36.32c0-.71,0-1.42,0-2.23H732.2c0,0.64-.11,1.28-0.11,1.91,0,12.17,0,24.33,0,36.5a10.62,10.62,0,0,0,.72,4.39,4.66,4.66,0,0,0,2.79,2.28c2.15,0.5,2.05,1.73,1.69,3.44-0.6,0-1.19.09-1.78,0.09q-13.55,0-27.11,0c-0.76,0-1.81.36-1.88-1-0.05-1.07,0-1.87,1.36-2.3,3.18-1,4-2.06,4-5.37,0.06-10.54.06-21.08,0.06-31.62q0-21.77,0-43.55c0-.66,0-1.32,0-2-0.16-3.19-.89-4.29-3.94-5.23-1.4-.43-1.57-1.24-1.43-2.41,0.17-1.38,1.25-.89,2-0.89,9,0,18.07,0,27.11,0,0.53,0,1.07.06,1.56,0.08,0.65,2.49.63,2.53-1.7,3.38a4.24,4.24,0,0,0-3.15,4c-0.13,3.43-.22,6.85-0.24,10.28,0,6.69,0,13.37,0,20.06,0,1.26.28,1.84,1.7,1.83,11.14-.05,22.29,0,33.43,0,0.41,0,.82-0.08,1.45-0.15v-2q0-13.73,0-27.47c0-4.72-.71-5.67-5.31-7.14,0-.42-0.1-0.89-0.11-1.35s0.06-.83.1-1.35h30.75Z" transform="translate(-199.57 -1126.74)" style="fill:#fff"/><path d="M359.48,1541.07c-1-6.36-3.73-11.77-9.25-15.46a31.27,31.27,0,0,0-14.86-5c-7.55-.65-15.13-0.8-22.69-1.16-0.7,0-1.39,0-2.19,0,0-8-.08-15.8,0-23.56,0-3,1.74-4.4,5-4.42,6.68,0,13.37-.07,20.05,0,7.4,0.09,10.56,2.42,13,9.37,0.58,1.67,1.08,3.37,1.6,5h4.89c0-.51.09-0.86,0.09-1.21,0-5.53-.23-11.08-0.05-16.6,0.1-3-.16-2.51-2.45-2.51H284.92c0.41,1.18-.79,2.43.93,3.08,4.07,1.54,4.54,2.29,4.54,6.67q0,37.59,0,75.17a15.55,15.55,0,0,1-.13,2.16,4.11,4.11,0,0,1-3.31,3.82c-2.25.42-2.17,1.69-1.81,3.4,0.48,0,.89.1,1.3,0.1,12.41,0,24.82.1,37.22,0,6.19-.06,12.37-0.46,18.35-2.34,8.13-2.56,13.78-7.61,16.28-15.91A46.43,46.43,0,0,0,359.48,1541.07Zm-22.07,21.45c-2,7.3-7.35,11.48-14.86,11.45a53.19,53.19,0,0,1-7.37-.37,4.54,4.54,0,0,1-4.32-4.56c-0.3-3.17-.32-6.36-0.37-9.55-0.05-4.27,0-8.55,0-12.82,0-6.57,0-13.13,0-19.69,0-1.44.41-1.94,1.82-1.86,4.08,0.22,8.22,0,12.24.63,7.66,1.14,12.06,5.41,13.5,13A53.07,53.07,0,0,1,337.41,1562.52Z" transform="translate(-199.57 -1126.74)" style="fill:#fff"/><path d="M606.19,1544.08c-0.85-10.49-5.58-17.86-15.62-21.43-6.66-2.37-13.62-2.87-20.59-3.15-4.26-.17-8.53,0-13,0,0-8,0-15.72,0-23.42,0-3.19,1.41-4.59,4.66-4.62,6.87-.06,13.74-0.14,20.61,0,7.4,0.17,10.49,2.6,12.78,9.61,0.42,1.25.73,2.55,1.22,3.76a1.82,1.82,0,0,0,1.17,1c1.29,0.13,2.61,0,4,0v-20.25H531.6c-0.47,1.72-.36,2.89,1.69,3.37a4.22,4.22,0,0,1,3.33,4.38c0,1.14.19,2.28,0.19,3.42q0,35.79,0,71.57c0,0.66,0,1.33,0,2-0.26,4.49-.75,5.13-5,6.58a2.42,2.42,0,0,0-.41.33c0,0.75.07,1.61,0.11,2.54,0.74,0,1.27.1,1.8,0.1,12.23,0,24.47.18,36.69-.07a88.75,88.75,0,0,0,16.09-1.77c9.66-2,16.27-7.74,18.87-17.5A48.28,48.28,0,0,0,606.19,1544.08Zm-22.71,19.16c-2.22,7.32-7.33,10.77-15,10.73a45.5,45.5,0,0,1-6.82-.35c-3.1-.51-4.55-2.32-4.62-5.51-0.11-4.39-.09-8.79-0.1-13.18q0-13.82,0-27.63v-2.13c6.25,0,12.34-.6,18.17,1.65a14,14,0,0,1,8.7,9.91A47.7,47.7,0,0,1,583.48,1563.24Z" transform="translate(-199.57 -1126.74)" style="fill:#fff"/><path d="M521.29,1501.72c-1.87-6.92-6.47-11.35-13.12-13.76-5.34-1.93-10.92-2.38-16.51-2.43-13-.11-25.89,0-38.84,0-0.8,0-1.76-.28-1.85,1.08a1.82,1.82,0,0,0,1.41,2.25c3,0.9,3.92,2.23,3.93,5.25q0,38.56,0,77.14c0,3.07-.89,4.39-3.86,5.28-1.42.42-1.58,1.23-1.47,2.39,0.13,1.51,1.3,1,2.08,1,8.91,0,17.82,0,26.73,0,0.64,0,1.28-.07,2-0.11v-2.71a9.23,9.23,0,0,0-1.21-.46,4.71,4.71,0,0,1-4-4.67c-0.05-.6-0.15-1.2-0.16-1.8,0-8.67,0-17.34,0-26,0-1.32.34-1.81,1.72-1.78a99,99,0,0,0,10.48,0,101.55,101.55,0,0,0,14.79-1.88c7.89-1.83,14.1-6.23,17.06-14.11A39.35,39.35,0,0,0,521.29,1501.72Zm-21.15,24c-2,7.6-6.55,10.9-14.41,11-1.15,0-2.29,0-3.43,0-1.33,0-2.66-.09-4,0-1.48.12-2-.39-1.94-1.91,0-11.44,0-22.88,0-34.32a41,41,0,0,1,.25-5.76c0.3-2.19,1.3-3.24,3.42-3.28a48.35,48.35,0,0,1,9.86.47c6.1,1.16,9.51,5.38,10.8,11.24A47.18,47.18,0,0,1,500.14,1525.71Z" transform="translate(-199.57 -1126.74)" style="fill:#fff"/><path d="M691.1,1561.34c-5.68-15.67-11.19-31.41-16.64-47.17-3.25-9.39-7.36-18.53-8.76-28.55H639v2.71c4.9,1.67,6,3.46,5,8.46a43.33,43.33,0,0,1-2.15,7c-5.58,13.93-11.09,27.9-16.91,41.73-4.5,10.68-9.42,21.17-14.17,31.73-0.35.79-.81,1.54-1.37,2.59,5.52,0,10.68,0,15.84,0a1.76,1.76,0,0,0,1.17-1.21c1.43-10.76,4.68-21,8-31.32a2.1,2.1,0,0,1,2.43-1.7c7.59,0.07,15.18,0,22.77,0,1.73,0,3.9-.49,5.08.35s1.45,3,2,4.67q4.3,14,8.49,28.08c0.33,1.11,1,1.17,1.89,1.16h21.8C696.11,1573.54,693.34,1567.53,691.1,1561.34ZM637,1539.4c4.35-12.66,8.64-25.12,12.92-37.59l0.4,0c4.14,12.41,8.28,24.83,12.54,37.57H637Z" transform="translate(-199.57 -1126.74)" style="fill:#fff"/><path d="M425.47,1522.83v10.72c-9.49-3.55-19.27-2-29.21-2.44v2.3q0,15.72,0,31.44c0,1.08.13,2.16,0.2,3.24a4.88,4.88,0,0,0,3.61,4.67,22.12,22.12,0,0,0,6,1.1c5.11,0.08,10.23,0,15.33-.22,4.85-.2,7.89-2.89,9.28-7.46,0.68-2.23,1.23-4.51,1.8-6.77a1.61,1.61,0,0,1,1.8-1.49c4.34,0,4.29-.1,4.27,4.28,0,5.42,0,10.83.13,16.25,0,1.57-.83,1.44-1.83,1.44H371.12c-0.44-1.8-.5-3,1.62-3.5a4.26,4.26,0,0,0,3.34-4.4c0.06-1.92.22-3.85,0.22-5.77q0-33.34,0-66.67c0-2-.18-4.09-0.2-6.13a4.2,4.2,0,0,0-3.29-4.41c-2-.51-2.23-1.61-1.66-3.51h63.12c2.33,0,2.2,0,2.17,2.41-0.08,5.29,0,10.59,0,15.89,0,0.59.06,1.19,0.11,2.07-1.55,0-3,.07-4.37,0a1.68,1.68,0,0,1-1-1c-0.49-1.29-.83-2.63-1.27-3.93-2.57-7.64-5.65-9-12.76-9.39-5.71-.3-11.44-0.09-17.16-0.06-2.48,0-3.41.82-3.57,3.31-0.18,2.94-.17,5.89-0.18,8.84,0,6.57,0,13.13,0,19.7,0,1.23.23,1.89,1.68,1.84,6.73-.26,13.47-0.31,20.19-0.7C420.53,1524.26,422.89,1523.4,425.47,1522.83Z" transform="translate(-199.57 -1126.74)" style="fill:#fff"/><path d="M839.92,1485.49c0.61,2,.18,3.08-1.77,3.54a4,4,0,0,0-3.19,4.09c-0.06,1-.2,2-0.2,3.06q0,36.69,0,73.37c0,1,.14,1.92.2,2.88a4,4,0,0,0,3.35,4c2.06,0.44,2,1.61,1.71,3.34-0.56.06-1.13,0.16-1.7,0.16q-13.64,0-27.29,0c-0.78,0-1.77.31-1.84-1.07-0.06-1.12.09-1.85,1.39-2.25,3-.93,3.93-2.1,4-5.21,0.07-9,.07-17.95.08-26.92q0-24.22,0-48.43,0-1.17-.07-2.35c-0.15-2.69-1-4-3.59-4.74-1.46-.41-2-1.1-1.75-2.52s1.54-.87,2.35-0.88c8.79,0,17.59,0,26.38,0h2Z" transform="translate(-199.57 -1126.74)" style="fill:#fff"/><path d="M836.55,1530.43c6.29-8.2,12.49-16.17,18.56-24.25,4.76-6.34,9.54-12.69,13.05-19.86a1.66,1.66,0,0,1,1.21-.79c6.68,0,13.37,0,20.05,0a1.63,1.63,0,0,1,.46.24c-1.86,1.37-3.69,2.65-5.45,4-9.46,7.5-17.9,16.08-26.05,24.94-1.63,1.77-3.27,3.54-5,5.25a1.53,1.53,0,0,0-.14,2.32c11.18,15.81,22.25,31.71,34.75,46.53,3.06,3.63,6.24,7.16,9.52,10.91-0.67.05-1.18,0.12-1.69,0.12H868c-1,0-1.77-.07-2.27-1.24-5.75-13.39-13.86-25.4-22-37.39C841.35,1537.69,839,1534.07,836.55,1530.43Z" transform="translate(-199.57 -1126.74)" style="fill:#fff"/></svg>