<svg id="Слой_1" data-name="Слой 1" xmlns="http://www.w3.org/2000/svg" width="721.47" height="564.31" viewBox="0 0 721.47 564.31"><title>tander</title><path d="M2122.39,1123.33s96.49,64,212.49,55.38,148.67-19.24,181.33-27.29,93.33-10,82.67,39.29-14.67,70.67-14.67,70.67-21.33-94-96.67-89.33-162.67,60-162.67,60-72.85,45.08-118.67,40.67C2160.55,1268.31,2129.9,1240.62,2122.39,1123.33Z" transform="translate(-2107.22 -1123.33)" style="fill:#fff"/><path d="M2107.22,1291.88H2636.7v17s-240-18.72-240,177.77v148.49l-52.5,52.5V1482.55s-1.66-174.39-181.49-174.39c-54.52,0-55.5.14-55.5,0.14v-16.42Z" transform="translate(-2107.22 -1123.33)" style="fill:#fff"/><path d="M2471.83,1506.59h17.41v5.18a22.75,22.75,0,0,1,8.36-6.12,12.55,12.55,0,0,1,3.13-1.1,15.1,15.1,0,0,1,3-.31,10.34,10.34,0,0,1,6.53,2,17.52,17.52,0,0,1,4.44,5.42q4.52-4.55,8.36-5.89a21.79,21.79,0,0,1,7.14-1.33q5.74,0,7.92,3.06a15.11,15.11,0,0,1,2.7,6.67,28.1,28.1,0,0,1,.17,3.06v94.91h-17.41V1521a1.6,1.6,0,0,0-.09-0.55,1.54,1.54,0,0,1-.09-0.55,7.45,7.45,0,0,0-1.48-1.57,5,5,0,0,0-5.14-.16,5.54,5.54,0,0,0-1.39,1.41,2.61,2.61,0,0,0-.26.71,3.21,3.21,0,0,0-.09.71l0.17,91.06H2497.6l0.17-91.37a3,3,0,0,0-1.13-2.28,3.69,3.69,0,0,0-2.52-1,4.57,4.57,0,0,0-.78.08,4.26,4.26,0,0,1-.78.08,6.43,6.43,0,0,0-2.26,1.1,2.44,2.44,0,0,0-1,2v91.37h-17.41v-105.5Z" transform="translate(-2107.22 -1123.33)" style="fill:#fff"/><path d="M2555.56,1518.2q0-6.44,3-9.26a15.46,15.46,0,0,1,6.7-3.77,20.29,20.29,0,0,1,3.57-.63q1.83-.16,3.22-0.16h11.66a16.18,16.18,0,0,1,10.53,3.61q4.44,3.61,4.44,10v94h-17.41v-5.18q-4.7,4.87-8.36,6a21.8,21.8,0,0,1-6.61,1.18q-5.92,0-8-3.06a15.79,15.79,0,0,1-2.61-6.83,26.89,26.89,0,0,1-.17-3v-33.44a10.89,10.89,0,0,1,2.52-7.14,26.93,26.93,0,0,1,5.48-5.1,21,21,0,0,1,3.83-2.28l3-1.33,0.7-.31,0.7-.31a28.86,28.86,0,0,0,6.53-4.08q3-2.51,3-7.38v-20.72a2.69,2.69,0,0,0-1-2.2,5.84,5.84,0,0,0-2-1.1,2.07,2.07,0,0,1-.61-0.08,2.38,2.38,0,0,0-1.22,0,2.08,2.08,0,0,1-.61.08,5.81,5.81,0,0,0-2,1.1,2.68,2.68,0,0,0-1,2.2v19.47h-17.41V1518.2Zm20.54,40.66a9.72,9.72,0,0,0-2.44,2.67,6.26,6.26,0,0,0-.61,2.2c-0.06.73-.09,1.57-0.09,2.51V1597a3.55,3.55,0,0,0,.87,2.51,6.82,6.82,0,0,0,1.74,1.41,2.15,2.15,0,0,1,.61.08,2.42,2.42,0,0,0,1.22,0,2.12,2.12,0,0,1,.61-0.08,5,5,0,0,0,2.26-1.33,3.47,3.47,0,0,0,1-2.59v-41.13A24.48,24.48,0,0,0,2576.1,1558.87Z" transform="translate(-2107.22 -1123.33)" style="fill:#fff"/><path d="M2614.57,1504.66h16.87v46.17h7.66v-46.17H2656v107.43H2639.1v-51.28h-7.66v51.28h-16.87V1504.66Z" transform="translate(-2107.22 -1123.33)" style="fill:#fff"/><path d="M2715.54,1624.34v0.47q0,1.73-.09,4a29.25,29.25,0,0,1-.61,4.79,17.55,17.55,0,0,1-4.44,7.85q-3.39,3.61-11.23,3.61h-10.27a3.68,3.68,0,0,0-1-.15h-1a17.74,17.74,0,0,1-9.49-3.78q-4.27-3.32-4.09-13.8V1625l16.54,0.16v7.38a2.67,2.67,0,0,0,1.39,2.2,5.46,5.46,0,0,0,3.13.94,4.45,4.45,0,0,0,2.61-.86,2.82,2.82,0,0,0,1.22-2.43v-26.06a22.68,22.68,0,0,1-4.09,3.45,20.35,20.35,0,0,1-4.61,2.36,15.2,15.2,0,0,1-2.09.47,14.19,14.19,0,0,1-2.09.16c-0.7,0-1.42,0-2.18-.08a8.11,8.11,0,0,1-2.35-.55,9.85,9.85,0,0,1-5.74-4q-2.61-3.37-2.61-11.54v-78.19a18.17,18.17,0,0,1,.17-2.51,17.34,17.34,0,0,1,3-7.93q2.44-3.53,9.4-3.53a17.68,17.68,0,0,1,12.18,5.65,2,2,0,0,0,.44.55l0.61,0.55v-4.55h17.41v117.75Zm-25.76-26.22a3,3,0,0,0,1.22,2.59,5.49,5.49,0,0,0,2.61,1h0.52a3.09,3.09,0,0,0,.7-0.08,3.18,3.18,0,0,1,.7-0.08,4.89,4.89,0,0,0,1.74-1.18,3.07,3.07,0,0,0,.87-2.28v-79a3,3,0,0,0-1.22-2.51,4.44,4.44,0,0,0-2.79-.94h-0.52a5.56,5.56,0,0,0-2.61,1,2.81,2.81,0,0,0-1.22,2.43v79Z" transform="translate(-2107.22 -1123.33)" style="fill:#fff"/><path d="M2773.33,1574.72v24q0,7.69-3.22,10.83a14.13,14.13,0,0,1-7.05,3.92,13.48,13.48,0,0,1-3.22.55q-1.66.08-3,.08l-10.79.16q-1.22-.16-2.61-0.24a21.68,21.68,0,0,1-3-.39,14.36,14.36,0,0,1-7.05-3.85q-3.22-3.06-3.22-10.91v-78.81q0-7.85,4.18-11.78t11.66-3.92h10.79q8.18,0,12.36,4.47a15.4,15.4,0,0,1,4.18,10.91v44.59h-25.76v35.48a2.27,2.27,0,0,0,.09.63,2.38,2.38,0,0,1,.09.63,4.37,4.37,0,0,0,1.13,1.26,3.7,3.7,0,0,0,2.35.63,5.28,5.28,0,0,0,3.48-1,2.84,2.84,0,0,0,1.22-2.12v-25.12h17.41Zm-17.41-20.41V1518.6a1.19,1.19,0,0,0-.17-0.55,4.28,4.28,0,0,0-1.39-1.57,5.19,5.19,0,0,0-3.13-.79,3.74,3.74,0,0,0-2.18.55,3.66,3.66,0,0,0-1.13,1.18,5.54,5.54,0,0,0-.26.94,4.14,4.14,0,0,0-.09.63v35.32h8.36Z" transform="translate(-2107.22 -1123.33)" style="fill:#fff"/><path d="M2785.52,1506.59h17.41v4.24a12,12,0,0,1,2.87-2.91,20.12,20.12,0,0,1,3.39-2,23.16,23.16,0,0,1,3.66-1.18,13.92,13.92,0,0,1,3-.39,13.73,13.73,0,0,1,9,3.22q3.92,3.22,3.92,13.58v79.13a18.63,18.63,0,0,1-.17,2.51,16.35,16.35,0,0,1-3,7.85q-2.53,3.45-9.66,3.45a14.18,14.18,0,0,1-6.35-1.33,20,20,0,0,1-4.61-3.06c-0.35-.31-0.7-0.65-1-1a10.68,10.68,0,0,1-.87-1v38h-17.41v-139.1Zm17.41,92.94a3.16,3.16,0,0,0,1.13,2.43,3.88,3.88,0,0,0,2.7,1,4.93,4.93,0,0,0,3.13-1.1,3.06,3.06,0,0,0,1.39-2.35v-80.38a3.16,3.16,0,0,0-1.31-2.59,5.08,5.08,0,0,0-3.22-1,4.08,4.08,0,0,0-2.7.94,3.28,3.28,0,0,0-1.13,2.67v80.38Z" transform="translate(-2107.22 -1123.33)" style="fill:#fff"/></svg>