<svg id="Слой_1" data-name="Слой 1" xmlns="http://www.w3.org/2000/svg" width="400.04" height="400.04" viewBox="0 0 400.04 400.04"><title>time select</title><path d="M317.8,1826.18c-110.29,0-200-89.73-200-200s89.73-200,200-200,200,89.73,200,200S428.09,1826.18,317.8,1826.18Zm0-390c-104.78,0-190,85.24-190,190s85.24,190,190,190,190-85.24,190-190S422.58,1436.14,317.8,1436.14Z" transform="translate(-117.78 -1426.14)" style="fill:#fff"/><path d="M317.8,1631.16a5,5,0,0,1-5-5V1484.23a5,5,0,0,1,10,0v141.93A5,5,0,0,1,317.8,1631.16Z" transform="translate(-117.78 -1426.14)" style="fill:#f4d214"/><path d="M394.94,1708.3a5,5,0,0,1-3.54-1.46l-77.14-77.14a5,5,0,0,1,7.07-7.07l77.14,77.14A5,5,0,0,1,394.94,1708.3Z" transform="translate(-117.78 -1426.14)" style="fill:#f4d214"/></svg>