<svg id="Слой_1" data-name="Слой 1" xmlns="http://www.w3.org/2000/svg" width="19.44cm" height="19.44cm" viewBox="0 0 551.03 551.04"><title>vk2</title><path d="M751.12,1110.05H528.4c-90.52,0-164.16,73.64-164.16,164.16v222.72c0,90.52,73.64,164.16,164.16,164.16H751.12c90.51,0,164.15-73.64,164.15-164.16V1274.21C915.27,1183.69,841.63,1110.05,751.12,1110.05ZM786,1497.55l-44.76.62s-9.62,1.91-22.29-6.8c-16.76-11.49-32.53-41.38-44.84-37.46-12.49,4-12.09,30.84-12.09,30.84s0.08,5.74-2.76,8.8c-3.09,3.34-9.13,4-9.13,4h-20s-44.23,2.66-83.17-37.89c-42.46-44.2-80-131.94-80-131.94s-2.16-5.75.18-8.53c2.64-3.13,9.84-3.33,9.84-3.33l47.89-.31a20.89,20.89,0,0,1,7.76,3.13,15,15,0,0,1,4.15,5.6,322.33,322.33,0,0,0,18,37.29c20,34.58,29.34,42.16,36.13,38.44,9.92-5.39,6.94-48.89,6.94-48.89s0.18-15.77-5-22.79c-4-5.45-11.56-7-14.89-7.5-2.69-.35,1.73-6.62,7.47-9.42,8.62-4.22,23.84-4.46,41.84-4.26,14,0.13,18,1,23.51,2.33,16.52,4,10.91,19.38,10.91,56.31,0,11.83-2.13,28.47,6.4,34,3.67,2.36,12.65.36,35.09-37.78,10.65-18,18.63-39.29,18.63-39.29s1.73-3.8,4.44-5.42a11.53,11.53,0,0,1,6.51-1.13l50.43-.31s15.13-1.82,17.6,5c2.56,7.18-5.67,23.93-26.27,51.38-33.82,45.07-37.58,40.87-9.51,66.91,26.82,24.89,32.38,37,33.29,38.52C809.45,1496.11,786,1497.55,786,1497.55Z" transform="translate(-364.24 -1110.05)" style="fill:#4d76a1"/></svg>